<?xml version="1.0" encoding="UTF-8"?>
<!--Generator: Apple Native CoreSVG 175.5-->
<!DOCTYPE svg
PUBLIC "-//W3C//DTD SVG 1.1//EN"
       "http://www.w3.org/Graphics/SVG/1.1/DTD/svg11.dtd">
<svg version="1.1" xmlns="http://www.w3.org/2000/svg" xmlns:xlink="http://www.w3.org/1999/xlink" width="3300" height="2200">
 <!--glyph: "", point size: 100.0, font version: "18.0d12e2", template writer version: "101"-->
 <style>.monochrome-0 {fill:#000000}

.SFSymbolsPreview000000 {fill:#000000;opacity:1.0}
</style>
 <g id="Notes">
  <rect height="2200" id="artboard" style="fill:white;opacity:1" width="3300" x="0" y="0"/>
  <line style="fill:none;stroke:black;opacity:1;stroke-width:0.5;" x1="263" x2="3036" y1="292" y2="292"/>
  <text style="stroke:none;fill:black;font-family:sans-serif;font-size:13;font-weight:bold;" transform="matrix(1 0 0 1 263 322)">Weight/Scale Variations</text>
  <text style="stroke:none;fill:black;font-family:sans-serif;font-size:13;text-anchor:middle;" transform="matrix(1 0 0 1 559.711 322)">Ultralight</text>
  <text style="stroke:none;fill:black;font-family:sans-serif;font-size:13;text-anchor:middle;" transform="matrix(1 0 0 1 856.422 322)">Thin</text>
  <text style="stroke:none;fill:black;font-family:sans-serif;font-size:13;text-anchor:middle;" transform="matrix(1 0 0 1 1153.13 322)">Light</text>
  <text style="stroke:none;fill:black;font-family:sans-serif;font-size:13;text-anchor:middle;" transform="matrix(1 0 0 1 1449.84 322)">Regular</text>
  <text style="stroke:none;fill:black;font-family:sans-serif;font-size:13;text-anchor:middle;" transform="matrix(1 0 0 1 1746.56 322)">Medium</text>
  <text style="stroke:none;fill:black;font-family:sans-serif;font-size:13;text-anchor:middle;" transform="matrix(1 0 0 1 2043.27 322)">Semibold</text>
  <text style="stroke:none;fill:black;font-family:sans-serif;font-size:13;text-anchor:middle;" transform="matrix(1 0 0 1 2339.98 322)">Bold</text>
  <text style="stroke:none;fill:black;font-family:sans-serif;font-size:13;text-anchor:middle;" transform="matrix(1 0 0 1 2636.69 322)">Heavy</text>
  <text style="stroke:none;fill:black;font-family:sans-serif;font-size:13;text-anchor:middle;" transform="matrix(1 0 0 1 2933.4 322)">Black</text>
  <line style="fill:none;stroke:black;opacity:1;stroke-width:0.5;" x1="263" x2="3036" y1="1903" y2="1903"/>
  <g transform="matrix(1 0 0 1 263 1933)">
   <path d="M9.24805 0.830078C13.5547 0.830078 17.1387-2.74414 17.1387-7.05078C17.1387-11.3574 13.5449-14.9316 9.23828-14.9316C4.94141-14.9316 1.36719-11.3574 1.36719-7.05078C1.36719-2.74414 4.95117 0.830078 9.24805 0.830078ZM9.24805-0.654297C5.70312-0.654297 2.87109-3.49609 2.87109-7.05078C2.87109-10.6055 5.69336-13.4473 9.23828-13.4473C12.793-13.4473 15.6445-10.6055 15.6445-7.05078C15.6445-3.49609 12.8027-0.654297 9.24805-0.654297ZM5.6543-7.05078C5.6543-6.62109 5.95703-6.32812 6.40625-6.32812L8.50586-6.32812L8.50586-4.20898C8.50586-3.76953 8.79883-3.4668 9.22852-3.4668C9.67773-3.4668 9.9707-3.76953 9.9707-4.20898L9.9707-6.32812L12.0898-6.32812C12.5293-6.32812 12.832-6.62109 12.832-7.05078C12.832-7.49023 12.5293-7.79297 12.0898-7.79297L9.9707-7.79297L9.9707-9.90234C9.9707-10.3516 9.67773-10.6543 9.22852-10.6543C8.79883-10.6543 8.50586-10.3516 8.50586-9.90234L8.50586-7.79297L6.40625-7.79297C5.95703-7.79297 5.6543-7.49023 5.6543-7.05078Z"/>
  </g>
  <g transform="matrix(1 0 0 1 281.867 1933)">
   <path d="M11.709 2.91016C17.1582 2.91016 21.6699-1.61133 21.6699-7.05078C21.6699-12.5 17.1484-17.0117 11.6992-17.0117C6.25977-17.0117 1.74805-12.5 1.74805-7.05078C1.74805-1.61133 6.26953 2.91016 11.709 2.91016ZM11.709 1.25C7.09961 1.25 3.41797-2.44141 3.41797-7.05078C3.41797-11.6602 7.08984-15.3516 11.6992-15.3516C16.3086-15.3516 20.0098-11.6602 20.0098-7.05078C20.0098-2.44141 16.3184 1.25 11.709 1.25ZM7.17773-7.05078C7.17773-6.57227 7.50977-6.25 8.00781-6.25L10.8789-6.25L10.8789-3.36914C10.8789-2.88086 11.2109-2.53906 11.6895-2.53906C12.1777-2.53906 12.5195-2.87109 12.5195-3.36914L12.5195-6.25L15.4004-6.25C15.8887-6.25 16.2305-6.57227 16.2305-7.05078C16.2305-7.53906 15.8887-7.88086 15.4004-7.88086L12.5195-7.88086L12.5195-10.752C12.5195-11.25 12.1777-11.5918 11.6895-11.5918C11.2109-11.5918 10.8789-11.25 10.8789-10.752L10.8789-7.88086L8.00781-7.88086C7.50977-7.88086 7.17773-7.53906 7.17773-7.05078Z"/>
  </g>
  <g transform="matrix(1 0 0 1 305.646 1933)">
   <path d="M14.9707 5.66406C21.9336 5.66406 27.6953-0.0976562 27.6953-7.05078C27.6953-14.0137 21.9238-19.7754 14.9609-19.7754C8.00781-19.7754 2.25586-14.0137 2.25586-7.05078C2.25586-0.0976562 8.01758 5.66406 14.9707 5.66406ZM14.9707 3.84766C8.93555 3.84766 4.08203-1.01562 4.08203-7.05078C4.08203-13.0957 8.92578-17.9492 14.9609-17.9492C21.0059-17.9492 25.8691-13.0957 25.8691-7.05078C25.8691-1.01562 21.0156 3.84766 14.9707 3.84766ZM9.19922-7.05078C9.19922-6.5332 9.57031-6.17188 10.1172-6.17188L14.0625-6.17188L14.0625-2.2168C14.0625-1.67969 14.4336-1.29883 14.9512-1.29883C15.4883-1.29883 15.8594-1.66992 15.8594-2.2168L15.8594-6.17188L19.8145-6.17188C20.3516-6.17188 20.7324-6.5332 20.7324-7.05078C20.7324-7.59766 20.3613-7.96875 19.8145-7.96875L15.8594-7.96875L15.8594-11.9141C15.8594-12.4609 15.4883-12.8418 14.9512-12.8418C14.4336-12.8418 14.0625-12.4609 14.0625-11.9141L14.0625-7.96875L10.1172-7.96875C9.57031-7.96875 9.19922-7.59766 9.19922-7.05078Z"/>
  </g>
  <text style="stroke:none;fill:black;font-family:sans-serif;font-size:13;font-weight:bold;" transform="matrix(1 0 0 1 263 1953)">Design Variations</text>
  <text style="stroke:none;fill:black;font-family:sans-serif;font-size:13;" transform="matrix(1 0 0 1 263 1971)">Symbols are supported in up to nine weights and three scales.</text>
  <text style="stroke:none;fill:black;font-family:sans-serif;font-size:13;" transform="matrix(1 0 0 1 263 1989)">For optimal layout with text and other symbols, vertically align</text>
  <text style="stroke:none;fill:black;font-family:sans-serif;font-size:13;" transform="matrix(1 0 0 1 263 2007)">symbols with the adjacent text.</text>
  <line style="fill:none;stroke:#00AEEF;stroke-width:0.5;opacity:1.0;" x1="776" x2="776" y1="1919" y2="1933"/>
  <g transform="matrix(1 0 0 1 776 1933)">
   <path d="M3.31055 0.15625C3.82812 0.15625 4.08203-0.0390625 4.26758-0.585938L5.52734-4.0332L11.2891-4.0332L12.5488-0.585938C12.7344-0.0390625 12.9883 0.15625 13.4961 0.15625C14.0137 0.15625 14.3457-0.15625 14.3457-0.644531C14.3457-0.810547 14.3164-0.966797 14.2383-1.17188L9.6582-13.3691C9.43359-13.9648 9.0332-14.2676 8.4082-14.2676C7.80273-14.2676 7.39258-13.9746 7.17773-13.3789L2.59766-1.16211C2.51953-0.957031 2.49023-0.800781 2.49023-0.634766C2.49023-0.146484 2.80273 0.15625 3.31055 0.15625ZM6.00586-5.51758L8.37891-12.0898L8.42773-12.0898L10.8008-5.51758Z"/>
  </g>
  <line style="fill:none;stroke:#00AEEF;stroke-width:0.5;opacity:1.0;" x1="793.197" x2="793.197" y1="1919" y2="1933"/>
  <text style="stroke:none;fill:black;font-family:sans-serif;font-size:13;font-weight:bold;" transform="matrix(1 0 0 1 776 1953)">Margins</text>
  <text style="stroke:none;fill:black;font-family:sans-serif;font-size:13;" transform="matrix(1 0 0 1 776 1971)">Leading and trailing margins on the left and right side of each symbol</text>
  <text style="stroke:none;fill:black;font-family:sans-serif;font-size:13;" transform="matrix(1 0 0 1 776 1989)">can be adjusted by modifying the x-location of the margin guidelines.</text>
  <text style="stroke:none;fill:black;font-family:sans-serif;font-size:13;" transform="matrix(1 0 0 1 776 2007)">Modifications are automatically applied proportionally to all</text>
  <text style="stroke:none;fill:black;font-family:sans-serif;font-size:13;" transform="matrix(1 0 0 1 776 2025)">scales and weights.</text>
  <g transform="matrix(1 0 0 1 1289 1933)">
   <path d="M2.8418 1.86523L4.54102 3.57422C5.40039 4.44336 6.38672 4.38477 7.31445 3.35938L18.0078-8.42773L17.041-9.4043L6.42578 2.27539C6.07422 2.67578 5.74219 2.77344 5.27344 2.30469L4.10156 1.14258C3.63281 0.683594 3.74023 0.341797 4.14062-0.0195312L15.6152-10.8203L14.6387-11.7871L3.04688-0.898438C2.06055 0.0195312 1.98242 0.996094 2.8418 1.86523ZM9.25781-16.3281C8.83789-15.918 8.80859-15.3418 9.04297-14.9512C9.27734-14.5898 9.73633-14.3555 10.3809-14.5215C11.8457-14.8633 13.3691-14.9219 14.7949-13.9844L14.209-12.5293C13.8672-11.6992 14.043-11.1133 14.5801-10.5664L16.875-8.25195C17.3633-7.76367 17.7734-7.74414 18.3398-7.8418L19.4043-8.03711L20.0684-7.36328L20.0293-6.80664C19.9902-6.30859 20.1172-5.92773 20.6055-5.44922L21.3672-4.70703C21.8457-4.22852 22.4609-4.19922 22.9297-4.66797L25.8398-7.58789C26.3086-8.05664 26.2891-8.65234 25.8105-9.13086L25.0391-9.89258C24.5605-10.3711 24.1895-10.5273 23.7109-10.4883L23.1348-10.4395L22.4902-11.0742L22.7344-12.1973C22.8613-12.7637 22.7051-13.2031 22.1191-13.7891L19.9219-15.9766C16.582-19.2969 12.1484-19.2188 9.25781-16.3281ZM10.752-15.957C13.1836-17.7344 16.4746-17.4316 18.7012-15.2051L21.1328-12.793C21.3672-12.5586 21.4062-12.373 21.3379-12.0312L21.0156-10.5469L22.5195-9.0625L23.5059-9.12109C23.7598-9.13086 23.8379-9.11133 24.0332-8.91602L24.6094-8.33984L22.168-5.89844L21.5918-6.47461C21.3965-6.66992 21.3672-6.74805 21.377-7.01172L21.4453-7.98828L19.9512-9.47266L18.4277-9.21875C18.1055-9.15039 17.959-9.17969 17.7148-9.41406L15.7129-11.416C15.459-11.6504 15.4297-11.8164 15.5859-12.1875L16.4648-14.2773C14.9023-15.7324 12.8711-16.3574 10.8398-15.7617C10.6836-15.7227 10.625-15.8496 10.752-15.957Z"/>
  </g>
  <text style="stroke:none;fill:black;font-family:sans-serif;font-size:13;font-weight:bold;" transform="matrix(1 0 0 1 1289 1953)">Exporting</text>
  <text style="stroke:none;fill:black;font-family:sans-serif;font-size:13;" transform="matrix(1 0 0 1 1289 1971)">Symbols should be outlined when exporting to ensure the</text>
  <text style="stroke:none;fill:black;font-family:sans-serif;font-size:13;" transform="matrix(1 0 0 1 1289 1989)">design is preserved when submitting to Xcode.</text>
  <text id="template-version" style="stroke:none;fill:black;font-family:sans-serif;font-size:13;text-anchor:end;" transform="matrix(1 0 0 1 3036 1933)">Template v.4.0</text>
  <text style="stroke:none;fill:black;font-family:sans-serif;font-size:13;text-anchor:end;" transform="matrix(1 0 0 1 3036 1951)">Requires Xcode 14 or greater</text>
  <text id="descriptive-name" style="stroke:none;fill:black;font-family:sans-serif;font-size:13;text-anchor:end;" transform="matrix(1 0 0 1 3036 1969)">Generated from routines.fill</text>
  <text style="stroke:none;fill:black;font-family:sans-serif;font-size:13;text-anchor:end;" transform="matrix(1 0 0 1 3036 1987)">Typeset at 100 points</text>
  <text style="stroke:none;fill:black;font-family:sans-serif;font-size:13;" transform="matrix(1 0 0 1 263 726)">Small</text>
  <text style="stroke:none;fill:black;font-family:sans-serif;font-size:13;" transform="matrix(1 0 0 1 263 1156)">Medium</text>
  <text style="stroke:none;fill:black;font-family:sans-serif;font-size:13;" transform="matrix(1 0 0 1 263 1586)">Large</text>
 </g>
 <g id="Guides">
  <g id="H-reference" style="fill:#27AAE1;stroke:none;" transform="matrix(1 0 0 1 339 696)">
   <path d="M0.993654 0L3.63775 0L29.3281-67.1323L30.0303-67.1323L30.0303-70.459L28.1226-70.459ZM11.6885-24.4799L46.9815-24.4799L46.2315-26.7285L12.4385-26.7285ZM55.1196 0L57.7637 0L30.6382-70.459L29.4326-70.459L29.4326-67.1323Z"/>
  </g>
  <line id="Baseline-S" style="fill:none;stroke:#27AAE1;opacity:1;stroke-width:0.5;" x1="263" x2="3036" y1="696" y2="696"/>
  <line id="Capline-S" style="fill:none;stroke:#27AAE1;opacity:1;stroke-width:0.5;" x1="263" x2="3036" y1="625.541" y2="625.541"/>
  <g id="H-reference" style="fill:#27AAE1;stroke:none;" transform="matrix(1 0 0 1 339 1126)">
   <path d="M0.993654 0L3.63775 0L29.3281-67.1323L30.0303-67.1323L30.0303-70.459L28.1226-70.459ZM11.6885-24.4799L46.9815-24.4799L46.2315-26.7285L12.4385-26.7285ZM55.1196 0L57.7637 0L30.6382-70.459L29.4326-70.459L29.4326-67.1323Z"/>
  </g>
  <line id="Baseline-M" style="fill:none;stroke:#27AAE1;opacity:1;stroke-width:0.5;" x1="263" x2="3036" y1="1126" y2="1126"/>
  <line id="Capline-M" style="fill:none;stroke:#27AAE1;opacity:1;stroke-width:0.5;" x1="263" x2="3036" y1="1055.54" y2="1055.54"/>
  <g id="H-reference" style="fill:#27AAE1;stroke:none;" transform="matrix(1 0 0 1 339 1556)">
   <path d="M0.993654 0L3.63775 0L29.3281-67.1323L30.0303-67.1323L30.0303-70.459L28.1226-70.459ZM11.6885-24.4799L46.9815-24.4799L46.2315-26.7285L12.4385-26.7285ZM55.1196 0L57.7637 0L30.6382-70.459L29.4326-70.459L29.4326-67.1323Z"/>
  </g>
  <line id="Baseline-L" style="fill:none;stroke:#27AAE1;opacity:1;stroke-width:0.5;" x1="263" x2="3036" y1="1556" y2="1556"/>
  <line id="Capline-L" style="fill:none;stroke:#27AAE1;opacity:1;stroke-width:0.5;" x1="263" x2="3036" y1="1485.54" y2="1485.54"/>
  <line id="left-margin-Ultralight-S" style="fill:none;stroke:#00AEEF;stroke-width:0.5;opacity:1.0;" x1="512.411" x2="512.411" y1="600.785" y2="720.121"/>
  <line id="right-margin-Ultralight-S" style="fill:none;stroke:#00AEEF;stroke-width:0.5;opacity:1.0;" x1="607.011" x2="607.011" y1="600.785" y2="720.121"/>
  <line id="left-margin-Regular-S" style="fill:none;stroke:#00AEEF;stroke-width:0.5;opacity:1.0;" x1="1401.39" x2="1401.39" y1="600.785" y2="720.121"/>
  <line id="right-margin-Regular-S" style="fill:none;stroke:#00AEEF;stroke-width:0.5;opacity:1.0;" x1="1498.29" x2="1498.29" y1="600.785" y2="720.121"/>
  <line id="left-margin-Black-S" style="fill:none;stroke:#00AEEF;stroke-width:0.5;opacity:1.0;" x1="2878.15" x2="2878.15" y1="600.785" y2="720.121"/>
  <line id="right-margin-Black-S" style="fill:none;stroke:#00AEEF;stroke-width:0.5;opacity:1.0;" x1="2988.65" x2="2988.65" y1="600.785" y2="720.121"/>
 </g>
 <g id="Symbols">
  <g id="Black-S" transform="matrix(1 0 0 1 2878.15 696)">
   <path class="monochrome-0 SFSymbolsPreview000000" d="M46.55-59.1C47.25-60.7 48.75-61.9 50.55-62.3C52.05-62.5 53.75-62.7 55.25-62.7C70.35-62.7 82.55-50.4 82.55-35.4C82.55-33.8 82.45-32.2 82.15-30.7C81.75-28.9 80.65-27.4 78.95-26.7L78.95-26.7C75.95-25.3 72.35-24.5 68.85-24.5C55.25-24.5 44.25-35.5 44.25-49.1C44.35-52.5 45.15-55.9 46.55-59.1L46.55-59.1ZM40.15-58C40.75-58.4 41.45-58.4 42.05-58C42.65-57.6 42.85-56.9 42.65-56.2C42.05-53.9 41.75-51.4 41.75-48.9C41.75-33.7 53.95-21.5 69.05-21.5C71.65-21.5 73.95-21.9 76.35-22.4C77.05-22.6 77.75-22.4 78.15-21.8C78.55-21.2 78.65-20.5 78.15-19.9C73.05-12.7 64.75-7.9 55.25-7.9C40.15-7.9 27.95-20.2 27.95-35.2C27.95-44.8 32.75-53.1 40.15-58ZM33.25-57.3L33.25-57.3C34.85-58.9 34.85-61.5 33.25-63L32.05-64.2C30.45-65.8 27.85-65.8 26.35-64.2L26.35-64.2C24.75-62.6 24.75-60 26.35-58.5L27.55-57.3C29.15-55.7 31.75-55.7 33.25-57.3ZM77.35-57.3L77.35-57.3C78.95-55.7 81.55-55.7 83.05-57.3L84.25-58.5C85.85-60.1 85.85-62.7 84.25-64.2L84.25-64.2C82.65-65.8 80.05-65.8 78.55-64.2L77.35-63C75.75-61.4 75.75-58.8 77.35-57.3ZM84.35-6.2L84.35-6.2C85.95-7.8 85.95-10.4 84.35-11.9L83.15-13.1C81.55-14.7 78.95-14.7 77.45-13.1L77.45-13.1C75.85-11.5 75.85-8.9 77.45-7.4L78.65-6.2C80.05-4.6 82.65-4.6 84.35-6.2ZM26.35-6.2L26.35-6.2C27.95-4.6 30.55-4.6 32.05-6.2L33.25-7.4C34.85-9 34.85-11.6 33.25-13.1L33.25-13.1C31.65-14.7 29.05-14.7 27.55-13.1L26.35-12C24.65-10.5 24.65-7.9 26.35-6.2ZM96.25-35.3L96.25-35.3C96.25-37.5 94.35-39.4 92.15-39.4L90.55-39.4C88.35-39.4 86.45-37.5 86.45-35.3L86.45-35.3C86.45-33.1 88.35-31.2 90.55-31.2L92.15-31.2C94.45-31.2 96.25-33 96.25-35.3ZM24.05-35.3L24.05-35.3C24.05-37.5 22.15-39.4 19.95-39.4L18.35-39.4C16.15-39.4 14.25-37.5 14.25-35.3L14.25-35.3C14.25-33.1 16.15-31.2 18.35-31.2L19.95-31.2C22.35-31.2 24.05-33 24.05-35.3ZM55.25 5.7L55.25 5.7C57.45 5.7 59.35 3.8 59.35 1.6L59.35 0C59.35-2.2 57.45-4.1 55.25-4.1L55.25-4.1C53.05-4.1 51.15-2.2 51.15 0L51.15 1.6C51.15 3.9 53.05 5.7 55.25 5.7ZM55.25-66.5L55.25-66.5C57.45-66.5 59.35-68.4 59.35-70.6L59.35-72.2C59.35-74.4 57.45-76.3 55.25-76.3L55.25-76.3C53.05-76.3 51.15-74.4 51.15-72.2L51.15-70.6C51.15-68.2 53.05-66.5 55.25-66.5Z"/>
  </g>
  <g id="Regular-S" transform="matrix(1 0 0 1 1401.39 696)">
   <path class="monochrome-0 SFSymbolsPreview000000" d="M39.63-59.1C40.33-60.7 41.83-61.9 43.63-62.3C45.13-62.5 46.83-62.7 48.33-62.7C63.43-62.7 75.63-50.4 75.63-35.4C75.63-33.8 75.53-32.2 75.23-30.7C74.83-28.9 73.73-27.4 72.03-26.7L72.03-26.7C68.93-25.3 65.43-24.5 61.93-24.5C48.33-24.5 37.33-35.5 37.33-49.1C37.53-52.6 38.23-56 39.63-59.1L39.63-59.1ZM33.33-58.1C33.93-58.5 34.63-58.5 35.23-58.1C35.83-57.7 36.03-57 35.83-56.3C35.23-54 34.93-51.5 34.93-49C34.93-33.9 47.23-21.7 62.23-21.7C64.83-21.7 67.13-22.1 69.53-22.6C70.23-22.8 70.93-22.6 71.33-22C71.73-21.4 71.83-20.7 71.33-20.1C66.23-12.8 57.93-8 48.43-8C33.33-8 21.13-20.3 21.13-35.3C21.13-44.8 25.93-53.1 33.33-58.1ZM26.33-57.4L26.33-57.4C27.43-58.5 27.43-60.2 26.33-61.3L23.23-64.4C22.13-65.5 20.43-65.5 19.33-64.4L19.33-64.4C18.23-63.3 18.23-61.6 19.33-60.5L22.43-57.4C23.53-56.3 25.33-56.3 26.33-57.4ZM70.43-57.4L70.43-57.4C71.53-56.3 73.23-56.3 74.33-57.4L77.43-60.5C78.53-61.6 78.53-63.3 77.43-64.4L77.43-64.4C76.33-65.5 74.63-65.5 73.53-64.4L70.43-61.3C69.43-60.2 69.43-58.4 70.43-57.4ZM77.53-6.2L77.53-6.2C78.63-7.3 78.63-9 77.53-10.1L74.43-13.2C73.33-14.3 71.63-14.3 70.53-13.2L70.53-13.2C69.43-12.1 69.43-10.4 70.53-9.3L73.63-6.2C74.73-5.2 76.43-5.2 77.53-6.2ZM19.43-6.2L19.43-6.2C20.53-5.1 22.23-5.1 23.33-6.2L26.43-9.3C27.53-10.4 27.53-12.1 26.43-13.2L26.43-13.2C25.33-14.3 23.63-14.3 22.53-13.2L19.43-10.1C18.43-9 18.43-7.3 19.43-6.2ZM89.43-35.3L89.43-35.3C89.43-36.8 88.23-38 86.73-38L82.43-38C80.93-38 79.73-36.8 79.73-35.3L79.73-35.3C79.73-33.8 80.93-32.6 82.43-32.6L86.73-32.6C88.33-32.5 89.43-33.8 89.43-35.3ZM17.23-35.3L17.23-35.3C17.23-36.8 16.03-38 14.53-38L10.23-38C8.73-38 7.53-36.8 7.53-35.3L7.53-35.3C7.53-33.8 8.73-32.6 10.23-32.6L14.53-32.6C16.03-32.5 17.23-33.8 17.23-35.3ZM48.43 5.7L48.43 5.7C49.93 5.7 51.13 4.5 51.13 3L51.13-1.3C51.13-2.8 49.93-4 48.43-4L48.43-4C46.93-4 45.73-2.8 45.73-1.3L45.73 3C45.73 4.6 46.93 5.7 48.43 5.7ZM48.43-66.5L48.43-66.5C49.93-66.5 51.13-67.7 51.13-69.2L51.13-73.5C51.13-75 49.93-76.2 48.43-76.2L48.43-76.2C46.93-76.2 45.73-75 45.73-73.5L45.73-69.2C45.73-67.7 46.93-66.5 48.43-66.5Z"/>
  </g>
  <g id="Ultralight-S" transform="matrix(1 0 0 1 512.411 696)">
   <path class="monochrome-0 SFSymbolsPreview000000" d="M38.533-59C39.233-60.6 40.733-61.8 42.533-62.2C44.033-62.4 45.733-62.6 47.233-62.6C62.333-62.6 74.533-50.3 74.533-35.3C74.533-33.7 74.433-32.1 74.133-30.6C73.733-28.8 72.633-27.3 70.933-26.6L70.933-26.6C67.933-25.2 64.333-24.4 60.833-24.4C47.233-24.4 36.233-35.4 36.233-49C36.333-52.5 37.133-55.9 38.533-59L38.533-59ZM32.133-58C32.733-58.4 33.433-58.4 34.033-58C34.633-57.6 34.833-56.9 34.633-56.2C34.033-53.9 33.733-51.4 33.733-48.9C33.733-33.8 46.033-21.6 61.033-21.6C63.633-21.6 65.933-22 68.333-22.5C69.033-22.7 69.733-22.5 70.133-21.9C70.533-21.3 70.633-20.6 70.133-20C65.033-12.8 56.733-8 47.233-8C32.133-8 19.933-20.3 19.933-35.3C19.933-44.8 24.833-53.1 32.133-58ZM25.333-57.3L25.333-57.3C25.933-57.9 25.933-58.7 25.333-59.2L20.333-64.2C19.733-64.8 18.933-64.8 18.433-64.2L18.433-64.2C17.833-63.6 17.833-62.8 18.433-62.3L23.433-57.3C23.933-56.7 24.733-56.7 25.333-57.3ZM69.333-57.3L69.333-57.3C69.933-56.7 70.733-56.7 71.233-57.3L76.233-62.3C76.833-62.9 76.833-63.7 76.233-64.2L76.233-64.2C75.633-64.8 74.833-64.8 74.333-64.2L69.333-59.2C68.733-58.7 68.733-57.8 69.333-57.3ZM76.233-6.3L76.233-6.3C76.833-6.9 76.833-7.7 76.233-8.2L71.233-13.2C70.633-13.8 69.833-13.8 69.333-13.2L69.333-13.2C68.733-12.6 68.733-11.8 69.333-11.3L74.333-6.3C74.833-5.7 75.733-5.7 76.233-6.3ZM18.333-6.3L18.333-6.3C18.933-5.7 19.733-5.7 20.233-6.3L25.233-11.3C25.833-11.9 25.833-12.7 25.233-13.2L25.233-13.2C24.633-13.8 23.833-13.8 23.333-13.2L18.333-8.2C17.833-7.7 17.833-6.9 18.333-6.3ZM88.233-35.3L88.233-35.3C88.233-36 87.633-36.7 86.833-36.7L79.733-36.7C79.033-36.7 78.333-36.1 78.333-35.3L78.333-35.3C78.333-34.6 78.933-33.9 79.733-33.9L86.833-33.9C87.733-33.9 88.233-34.5 88.233-35.3ZM16.233-35.3L16.233-35.3C16.233-36 15.633-36.7 14.833-36.7L7.733-36.7C7.033-36.7 6.333-36.1 6.333-35.3L6.333-35.3C6.333-34.6 6.933-33.9 7.733-33.9L14.833-33.9C15.633-33.9 16.233-34.5 16.233-35.3ZM47.333 5.6L47.333 5.6C48.033 5.6 48.733 5 48.733 4.2L48.733-2.9C48.733-3.6 48.133-4.3 47.333-4.3L47.333-4.3C46.633-4.3 45.933-3.7 45.933-2.9L45.933 4.2C45.933 5.1 46.533 5.6 47.333 5.6ZM47.333-66.4L47.333-66.4C48.033-66.4 48.733-67 48.733-67.8L48.733-74.9C48.733-75.6 48.133-76.3 47.333-76.3L47.333-76.3C46.633-76.3 45.933-75.7 45.933-74.9L45.933-67.8C45.933-67 46.533-66.4 47.333-66.4Z"/>
  </g>
 </g>
</svg>
