<?xml version="1.0" encoding="UTF-8"?>
<!--Generator: Apple Native CoreSVG 175.5-->
<!DOCTYPE svg
PUBLIC "-//W3C//DTD SVG 1.1//EN"
       "http://www.w3.org/Graphics/SVG/1.1/DTD/svg11.dtd">
<svg version="1.1" xmlns="http://www.w3.org/2000/svg" xmlns:xlink="http://www.w3.org/1999/xlink" width="3300" height="2200">
 <!--glyph: "", point size: 100.0, font version: "18.0d12e2", template writer version: "101"-->
 <style>.monochrome-0 {fill:#000000}

.SFSymbolsPreview000000 {fill:#000000;opacity:1.0}
</style>
 <g id="Notes">
  <rect height="2200" id="artboard" style="fill:white;opacity:1" width="3300" x="0" y="0"/>
  <line style="fill:none;stroke:black;opacity:1;stroke-width:0.5;" x1="263" x2="3036" y1="292" y2="292"/>
  <text style="stroke:none;fill:black;font-family:sans-serif;font-size:13;font-weight:bold;" transform="matrix(1 0 0 1 263 322)">Weight/Scale Variations</text>
  <text style="stroke:none;fill:black;font-family:sans-serif;font-size:13;text-anchor:middle;" transform="matrix(1 0 0 1 559.711 322)">Ultralight</text>
  <text style="stroke:none;fill:black;font-family:sans-serif;font-size:13;text-anchor:middle;" transform="matrix(1 0 0 1 856.422 322)">Thin</text>
  <text style="stroke:none;fill:black;font-family:sans-serif;font-size:13;text-anchor:middle;" transform="matrix(1 0 0 1 1153.13 322)">Light</text>
  <text style="stroke:none;fill:black;font-family:sans-serif;font-size:13;text-anchor:middle;" transform="matrix(1 0 0 1 1449.84 322)">Regular</text>
  <text style="stroke:none;fill:black;font-family:sans-serif;font-size:13;text-anchor:middle;" transform="matrix(1 0 0 1 1746.56 322)">Medium</text>
  <text style="stroke:none;fill:black;font-family:sans-serif;font-size:13;text-anchor:middle;" transform="matrix(1 0 0 1 2043.27 322)">Semibold</text>
  <text style="stroke:none;fill:black;font-family:sans-serif;font-size:13;text-anchor:middle;" transform="matrix(1 0 0 1 2339.98 322)">Bold</text>
  <text style="stroke:none;fill:black;font-family:sans-serif;font-size:13;text-anchor:middle;" transform="matrix(1 0 0 1 2636.69 322)">Heavy</text>
  <text style="stroke:none;fill:black;font-family:sans-serif;font-size:13;text-anchor:middle;" transform="matrix(1 0 0 1 2933.4 322)">Black</text>
  <line style="fill:none;stroke:black;opacity:1;stroke-width:0.5;" x1="263" x2="3036" y1="1903" y2="1903"/>
  <g transform="matrix(1 0 0 1 263 1933)">
   <path d="M9.24805 0.830078C13.5547 0.830078 17.1387-2.74414 17.1387-7.05078C17.1387-11.3574 13.5449-14.9316 9.23828-14.9316C4.94141-14.9316 1.36719-11.3574 1.36719-7.05078C1.36719-2.74414 4.95117 0.830078 9.24805 0.830078ZM9.24805-0.654297C5.70312-0.654297 2.87109-3.49609 2.87109-7.05078C2.87109-10.6055 5.69336-13.4473 9.23828-13.4473C12.793-13.4473 15.6445-10.6055 15.6445-7.05078C15.6445-3.49609 12.8027-0.654297 9.24805-0.654297ZM5.6543-7.05078C5.6543-6.62109 5.95703-6.32812 6.40625-6.32812L8.50586-6.32812L8.50586-4.20898C8.50586-3.76953 8.79883-3.4668 9.22852-3.4668C9.67773-3.4668 9.9707-3.76953 9.9707-4.20898L9.9707-6.32812L12.0898-6.32812C12.5293-6.32812 12.832-6.62109 12.832-7.05078C12.832-7.49023 12.5293-7.79297 12.0898-7.79297L9.9707-7.79297L9.9707-9.90234C9.9707-10.3516 9.67773-10.6543 9.22852-10.6543C8.79883-10.6543 8.50586-10.3516 8.50586-9.90234L8.50586-7.79297L6.40625-7.79297C5.95703-7.79297 5.6543-7.49023 5.6543-7.05078Z"/>
  </g>
  <g transform="matrix(1 0 0 1 281.867 1933)">
   <path d="M11.709 2.91016C17.1582 2.91016 21.6699-1.61133 21.6699-7.05078C21.6699-12.5 17.1484-17.0117 11.6992-17.0117C6.25977-17.0117 1.74805-12.5 1.74805-7.05078C1.74805-1.61133 6.26953 2.91016 11.709 2.91016ZM11.709 1.25C7.09961 1.25 3.41797-2.44141 3.41797-7.05078C3.41797-11.6602 7.08984-15.3516 11.6992-15.3516C16.3086-15.3516 20.0098-11.6602 20.0098-7.05078C20.0098-2.44141 16.3184 1.25 11.709 1.25ZM7.17773-7.05078C7.17773-6.57227 7.50977-6.25 8.00781-6.25L10.8789-6.25L10.8789-3.36914C10.8789-2.88086 11.2109-2.53906 11.6895-2.53906C12.1777-2.53906 12.5195-2.87109 12.5195-3.36914L12.5195-6.25L15.4004-6.25C15.8887-6.25 16.2305-6.57227 16.2305-7.05078C16.2305-7.53906 15.8887-7.88086 15.4004-7.88086L12.5195-7.88086L12.5195-10.752C12.5195-11.25 12.1777-11.5918 11.6895-11.5918C11.2109-11.5918 10.8789-11.25 10.8789-10.752L10.8789-7.88086L8.00781-7.88086C7.50977-7.88086 7.17773-7.53906 7.17773-7.05078Z"/>
  </g>
  <g transform="matrix(1 0 0 1 305.646 1933)">
   <path d="M14.9707 5.66406C21.9336 5.66406 27.6953-0.0976562 27.6953-7.05078C27.6953-14.0137 21.9238-19.7754 14.9609-19.7754C8.00781-19.7754 2.25586-14.0137 2.25586-7.05078C2.25586-0.0976562 8.01758 5.66406 14.9707 5.66406ZM14.9707 3.84766C8.93555 3.84766 4.08203-1.01562 4.08203-7.05078C4.08203-13.0957 8.92578-17.9492 14.9609-17.9492C21.0059-17.9492 25.8691-13.0957 25.8691-7.05078C25.8691-1.01562 21.0156 3.84766 14.9707 3.84766ZM9.19922-7.05078C9.19922-6.5332 9.57031-6.17188 10.1172-6.17188L14.0625-6.17188L14.0625-2.2168C14.0625-1.67969 14.4336-1.29883 14.9512-1.29883C15.4883-1.29883 15.8594-1.66992 15.8594-2.2168L15.8594-6.17188L19.8145-6.17188C20.3516-6.17188 20.7324-6.5332 20.7324-7.05078C20.7324-7.59766 20.3613-7.96875 19.8145-7.96875L15.8594-7.96875L15.8594-11.9141C15.8594-12.4609 15.4883-12.8418 14.9512-12.8418C14.4336-12.8418 14.0625-12.4609 14.0625-11.9141L14.0625-7.96875L10.1172-7.96875C9.57031-7.96875 9.19922-7.59766 9.19922-7.05078Z"/>
  </g>
  <text style="stroke:none;fill:black;font-family:sans-serif;font-size:13;font-weight:bold;" transform="matrix(1 0 0 1 263 1953)">Design Variations</text>
  <text style="stroke:none;fill:black;font-family:sans-serif;font-size:13;" transform="matrix(1 0 0 1 263 1971)">Symbols are supported in up to nine weights and three scales.</text>
  <text style="stroke:none;fill:black;font-family:sans-serif;font-size:13;" transform="matrix(1 0 0 1 263 1989)">For optimal layout with text and other symbols, vertically align</text>
  <text style="stroke:none;fill:black;font-family:sans-serif;font-size:13;" transform="matrix(1 0 0 1 263 2007)">symbols with the adjacent text.</text>
  <line style="fill:none;stroke:#00AEEF;stroke-width:0.5;opacity:1.0;" x1="776" x2="776" y1="1919" y2="1933"/>
  <g transform="matrix(1 0 0 1 776 1933)">
   <path d="M3.31055 0.15625C3.82812 0.15625 4.08203-0.0390625 4.26758-0.585938L5.52734-4.0332L11.2891-4.0332L12.5488-0.585938C12.7344-0.0390625 12.9883 0.15625 13.4961 0.15625C14.0137 0.15625 14.3457-0.15625 14.3457-0.644531C14.3457-0.810547 14.3164-0.966797 14.2383-1.17188L9.6582-13.3691C9.43359-13.9648 9.0332-14.2676 8.4082-14.2676C7.80273-14.2676 7.39258-13.9746 7.17773-13.3789L2.59766-1.16211C2.51953-0.957031 2.49023-0.800781 2.49023-0.634766C2.49023-0.146484 2.80273 0.15625 3.31055 0.15625ZM6.00586-5.51758L8.37891-12.0898L8.42773-12.0898L10.8008-5.51758Z"/>
  </g>
  <line style="fill:none;stroke:#00AEEF;stroke-width:0.5;opacity:1.0;" x1="793.197" x2="793.197" y1="1919" y2="1933"/>
  <text style="stroke:none;fill:black;font-family:sans-serif;font-size:13;font-weight:bold;" transform="matrix(1 0 0 1 776 1953)">Margins</text>
  <text style="stroke:none;fill:black;font-family:sans-serif;font-size:13;" transform="matrix(1 0 0 1 776 1971)">Leading and trailing margins on the left and right side of each symbol</text>
  <text style="stroke:none;fill:black;font-family:sans-serif;font-size:13;" transform="matrix(1 0 0 1 776 1989)">can be adjusted by modifying the x-location of the margin guidelines.</text>
  <text style="stroke:none;fill:black;font-family:sans-serif;font-size:13;" transform="matrix(1 0 0 1 776 2007)">Modifications are automatically applied proportionally to all</text>
  <text style="stroke:none;fill:black;font-family:sans-serif;font-size:13;" transform="matrix(1 0 0 1 776 2025)">scales and weights.</text>
  <g transform="matrix(1 0 0 1 1289 1933)">
   <path d="M2.8418 1.86523L4.54102 3.57422C5.40039 4.44336 6.38672 4.38477 7.31445 3.35938L18.0078-8.42773L17.041-9.4043L6.42578 2.27539C6.07422 2.67578 5.74219 2.77344 5.27344 2.30469L4.10156 1.14258C3.63281 0.683594 3.74023 0.341797 4.14062-0.0195312L15.6152-10.8203L14.6387-11.7871L3.04688-0.898438C2.06055 0.0195312 1.98242 0.996094 2.8418 1.86523ZM9.25781-16.3281C8.83789-15.918 8.80859-15.3418 9.04297-14.9512C9.27734-14.5898 9.73633-14.3555 10.3809-14.5215C11.8457-14.8633 13.3691-14.9219 14.7949-13.9844L14.209-12.5293C13.8672-11.6992 14.043-11.1133 14.5801-10.5664L16.875-8.25195C17.3633-7.76367 17.7734-7.74414 18.3398-7.8418L19.4043-8.03711L20.0684-7.36328L20.0293-6.80664C19.9902-6.30859 20.1172-5.92773 20.6055-5.44922L21.3672-4.70703C21.8457-4.22852 22.4609-4.19922 22.9297-4.66797L25.8398-7.58789C26.3086-8.05664 26.2891-8.65234 25.8105-9.13086L25.0391-9.89258C24.5605-10.3711 24.1895-10.5273 23.7109-10.4883L23.1348-10.4395L22.4902-11.0742L22.7344-12.1973C22.8613-12.7637 22.7051-13.2031 22.1191-13.7891L19.9219-15.9766C16.582-19.2969 12.1484-19.2188 9.25781-16.3281ZM10.752-15.957C13.1836-17.7344 16.4746-17.4316 18.7012-15.2051L21.1328-12.793C21.3672-12.5586 21.4062-12.373 21.3379-12.0312L21.0156-10.5469L22.5195-9.0625L23.5059-9.12109C23.7598-9.13086 23.8379-9.11133 24.0332-8.91602L24.6094-8.33984L22.168-5.89844L21.5918-6.47461C21.3965-6.66992 21.3672-6.74805 21.377-7.01172L21.4453-7.98828L19.9512-9.47266L18.4277-9.21875C18.1055-9.15039 17.959-9.17969 17.7148-9.41406L15.7129-11.416C15.459-11.6504 15.4297-11.8164 15.5859-12.1875L16.4648-14.2773C14.9023-15.7324 12.8711-16.3574 10.8398-15.7617C10.6836-15.7227 10.625-15.8496 10.752-15.957Z"/>
  </g>
  <text style="stroke:none;fill:black;font-family:sans-serif;font-size:13;font-weight:bold;" transform="matrix(1 0 0 1 1289 1953)">Exporting</text>
  <text style="stroke:none;fill:black;font-family:sans-serif;font-size:13;" transform="matrix(1 0 0 1 1289 1971)">Symbols should be outlined when exporting to ensure the</text>
  <text style="stroke:none;fill:black;font-family:sans-serif;font-size:13;" transform="matrix(1 0 0 1 1289 1989)">design is preserved when submitting to Xcode.</text>
  <text id="template-version" style="stroke:none;fill:black;font-family:sans-serif;font-size:13;text-anchor:end;" transform="matrix(1 0 0 1 3036 1933)">Template v.4.0</text>
  <text style="stroke:none;fill:black;font-family:sans-serif;font-size:13;text-anchor:end;" transform="matrix(1 0 0 1 3036 1951)">Requires Xcode 14 or greater</text>
  <text id="descriptive-name" style="stroke:none;fill:black;font-family:sans-serif;font-size:13;text-anchor:end;" transform="matrix(1 0 0 1 3036 1969)">Generated from routines.fill</text>
  <text style="stroke:none;fill:black;font-family:sans-serif;font-size:13;text-anchor:end;" transform="matrix(1 0 0 1 3036 1987)">Typeset at 100 points</text>
  <text style="stroke:none;fill:black;font-family:sans-serif;font-size:13;" transform="matrix(1 0 0 1 263 726)">Small</text>
  <text style="stroke:none;fill:black;font-family:sans-serif;font-size:13;" transform="matrix(1 0 0 1 263 1156)">Medium</text>
  <text style="stroke:none;fill:black;font-family:sans-serif;font-size:13;" transform="matrix(1 0 0 1 263 1586)">Large</text>
 </g>
 <g id="Guides">
  <g id="H-reference" style="fill:#27AAE1;stroke:none;" transform="matrix(1 0 0 1 339 696)">
   <path d="M0.993654 0L3.63775 0L29.3281-67.1323L30.0303-67.1323L30.0303-70.459L28.1226-70.459ZM11.6885-24.4799L46.9815-24.4799L46.2315-26.7285L12.4385-26.7285ZM55.1196 0L57.7637 0L30.6382-70.459L29.4326-70.459L29.4326-67.1323Z"/>
  </g>
  <line id="Baseline-S" style="fill:none;stroke:#27AAE1;opacity:1;stroke-width:0.5;" x1="263" x2="3036" y1="696" y2="696"/>
  <line id="Capline-S" style="fill:none;stroke:#27AAE1;opacity:1;stroke-width:0.5;" x1="263" x2="3036" y1="625.541" y2="625.541"/>
  <g id="H-reference" style="fill:#27AAE1;stroke:none;" transform="matrix(1 0 0 1 339 1126)">
   <path d="M0.993654 0L3.63775 0L29.3281-67.1323L30.0303-67.1323L30.0303-70.459L28.1226-70.459ZM11.6885-24.4799L46.9815-24.4799L46.2315-26.7285L12.4385-26.7285ZM55.1196 0L57.7637 0L30.6382-70.459L29.4326-70.459L29.4326-67.1323Z"/>
  </g>
  <line id="Baseline-M" style="fill:none;stroke:#27AAE1;opacity:1;stroke-width:0.5;" x1="263" x2="3036" y1="1126" y2="1126"/>
  <line id="Capline-M" style="fill:none;stroke:#27AAE1;opacity:1;stroke-width:0.5;" x1="263" x2="3036" y1="1055.54" y2="1055.54"/>
  <g id="H-reference" style="fill:#27AAE1;stroke:none;" transform="matrix(1 0 0 1 339 1556)">
   <path d="M0.993654 0L3.63775 0L29.3281-67.1323L30.0303-67.1323L30.0303-70.459L28.1226-70.459ZM11.6885-24.4799L46.9815-24.4799L46.2315-26.7285L12.4385-26.7285ZM55.1196 0L57.7637 0L30.6382-70.459L29.4326-70.459L29.4326-67.1323Z"/>
  </g>
  <line id="Baseline-L" style="fill:none;stroke:#27AAE1;opacity:1;stroke-width:0.5;" x1="263" x2="3036" y1="1556" y2="1556"/>
  <line id="Capline-L" style="fill:none;stroke:#27AAE1;opacity:1;stroke-width:0.5;" x1="263" x2="3036" y1="1485.54" y2="1485.54"/>
  <line id="left-margin-Ultralight-S" style="fill:none;stroke:#00AEEF;stroke-width:0.5;opacity:1.0;" x1="512.411" x2="512.411" y1="600.785" y2="720.121"/>
  <line id="right-margin-Ultralight-S" style="fill:none;stroke:#00AEEF;stroke-width:0.5;opacity:1.0;" x1="607.011" x2="607.011" y1="600.785" y2="720.121"/>
  <line id="left-margin-Regular-S" style="fill:none;stroke:#00AEEF;stroke-width:0.5;opacity:1.0;" x1="1401.39" x2="1401.39" y1="600.785" y2="720.121"/>
  <line id="right-margin-Regular-S" style="fill:none;stroke:#00AEEF;stroke-width:0.5;opacity:1.0;" x1="1498.29" x2="1498.29" y1="600.785" y2="720.121"/>
  <line id="left-margin-Black-S" style="fill:none;stroke:#00AEEF;stroke-width:0.5;opacity:1.0;" x1="2878.15" x2="2878.15" y1="600.785" y2="720.121"/>
  <line id="right-margin-Black-S" style="fill:none;stroke:#00AEEF;stroke-width:0.5;opacity:1.0;" x1="2988.65" x2="2988.65" y1="600.785" y2="720.121"/>
 </g>
 <g id="Symbols">
  <g id="Black-S" transform="matrix(1 0 0 1 2878.15 696)">
   <path class="monochrome-0 SFSymbolsPreview000000" d="M47.85-55.6C48.45-57 49.75-58 51.25-58.3C52.55-58.5 53.95-58.6 55.25-58.6C68.15-58.6 78.55-48.1 78.55-35.3C78.55-33.9 78.45-32.6 78.25-31.3C77.95-29.8 76.95-28.5 75.55-27.9C75.55-27.9 75.55-27.9 75.55-27.9C72.95-26.7 69.95-26 66.95-26C55.35-26 45.95-35.4 45.95-47C45.95-50 46.65-52.9 47.85-55.6C47.85-55.6 47.85-55.6 47.85-55.6ZM42.35-54.7C42.85-55 43.45-55 43.95-54.7C44.45-54.4 44.65-53.8 44.45-53.2C43.95-51.2 43.65-49.1 43.65-47C43.65-34 54.05-23.6 66.95-23.6C69.15-23.6 71.15-23.9 73.15-24.4C73.75-24.6 74.35-24.4 74.65-23.9C74.95-23.4 75.05-22.8 74.65-22.3C70.45-16 63.35-11.9 55.25-11.9C42.35-11.9 31.95-22.4 31.95-35.2C31.95-43.4 36.05-50.5 42.35-54.7ZM74.15-54.1L74.15-54.1C75.55-52.7 77.75-52.7 79.05-54.1L80.05-55.1C81.45-56.5 81.45-58.7 80.05-60L80.05-60C78.65-61.4 76.45-61.4 75.15-60L74.15-59C72.75-57.6 72.75-55.4 74.15-54.1ZM80.05-10.5L80.05-10.5C81.45-11.9 81.45-14.1 80.05-15.4L79.05-16.4C77.65-17.8 75.45-17.8 74.15-16.4L74.15-16.4C72.75-15 72.75-12.8 74.15-11.5L75.15-10.5C76.45-9.1 78.65-9.1 80.05-10.5ZM36.45-54.1L36.45-54.1C37.85-55.5 37.85-57.7 36.45-59L35.45-60C34.05-61.4 31.85-61.4 30.55-60L30.55-60C29.15-58.6 29.15-56.4 30.55-55.1L31.55-54.1C32.95-52.7 35.15-52.7 36.45-54.1ZM30.55-10.5L30.55-10.5C31.95-9.1 34.15-9.1 35.45-10.5L36.45-11.5C37.85-12.9 37.85-15.1 36.45-16.4L36.45-16.4C35.05-17.8 32.85-17.8 31.55-16.4L30.55-15.4C29.15-14.1 29.15-11.9 30.55-10.5ZM90.25-35.3L90.25-35.3C90.25-37.2 88.65-38.8 86.75-38.8L85.35-38.8C83.45-38.8 81.85-37.2 81.85-35.3L81.85-35.3C81.85-33.4 83.45-31.8 85.35-31.8L86.75-31.8C88.75-31.8 90.25-33.3 90.25-35.3ZM28.65-35.3L28.65-35.3C28.65-37.2 27.05-38.8 25.15-38.8L23.75-38.8C21.85-38.8 20.25-37.2 20.25-35.3L20.25-35.3C20.25-33.4 21.85-31.8 23.75-31.8L25.15-31.8C27.15-31.8 28.65-33.3 28.65-35.3ZM55.25-0.3L55.25-0.3C57.15-0.3 58.75-1.9 58.75-3.8L58.75-5.2C58.75-7.1 57.15-8.7 55.25-8.7L55.25-8.7C53.35-8.7 51.75-7.1 51.75-5.2L51.75-3.8C51.75-1.8 53.35-0.3 55.25-0.3ZM55.25-61.9L55.25-61.9C57.15-61.9 58.75-63.5 58.75-65.4L58.75-66.8C58.75-68.7 57.15-70.3 55.25-70.3L55.25-70.3C53.35-70.3 51.75-68.7 51.75-66.8L51.75-65.4C51.75-63.4 53.35-61.9 55.25-61.9Z"/>
  </g>
  <g id="Regular-S" transform="matrix(1 0 0 1 1401.39 696)">
   <path class="monochrome-0 SFSymbolsPreview000000" d="M40.93-55.6C41.53-57 42.83-58 44.33-58.3C45.63-58.5 47.03-58.6 48.33-58.6C61.23-58.6 71.63-48.1 71.63-35.3C71.63-33.9 71.53-32.6 71.33-31.3C71.03-29.8 70.03-28.5 68.63-27.9C68.63-27.9 68.63-27.9 68.63-27.9C66.03-26.7 63.03-26 60.03-26C48.43-26 39.03-35.4 39.03-47C39.13-50 39.73-52.9 40.93-55.6C40.93-55.6 40.93-55.6 40.93-55.6ZM35.53-54.7C36.03-55 36.63-55 37.13-54.7C37.63-54.4 37.83-53.8 37.63-53.2C37.13-51.2 36.83-49.1 36.83-47C36.83-34.1 47.33-23.7 60.13-23.7C62.33-23.7 64.33-24 66.33-24.5C66.93-24.7 67.53-24.5 67.83-24C68.13-23.5 68.23-22.9 67.83-22.4C63.63-16.1 56.53-12 48.43-12C35.53-12 25.13-22.5 25.13-35.3C25.13-43.4 29.23-50.5 35.53-54.7ZM67.23-54.1L67.23-54.1C68.13-53.2 69.63-53.2 70.53-54.1L73.13-56.7C74.03-57.6 74.03-59.1 73.13-60L73.13-60C72.23-60.9 70.73-60.9 69.83-60L67.23-57.4C66.33-56.5 66.33-55 67.23-54.1ZM73.23-10.5L73.23-10.5C74.13-11.4 74.13-12.9 73.23-13.8L70.63-16.4C69.73-17.3 68.23-17.3 67.33-16.4L67.33-16.4C66.43-15.5 66.43-14 67.33-13.1L69.93-10.5C70.83-9.6 72.33-9.6 73.23-10.5ZM29.63-54.1L29.63-54.1C30.53-55 30.53-56.5 29.63-57.4L27.03-60C26.13-60.9 24.63-60.9 23.73-60L23.73-60C22.83-59.1 22.83-57.6 23.73-56.7L26.33-54.1C27.23-53.2 28.73-53.2 29.63-54.1ZM23.73-10.5L23.73-10.5C24.63-9.6 26.13-9.6 27.03-10.5L29.63-13.1C30.53-14 30.53-15.5 29.63-16.4L29.63-16.4C28.73-17.3 27.23-17.3 26.33-16.4L23.73-13.8C22.83-12.9 22.83-11.4 23.73-10.5ZM83.43-35.3L83.43-35.3C83.43-36.6 82.43-37.6 81.13-37.6L77.43-37.6C76.13-37.6 75.13-36.6 75.13-35.3L75.13-35.3C75.13-34 76.13-33 77.43-33L81.13-33C82.43-32.9 83.43-34 83.43-35.3ZM21.83-35.3L21.83-35.3C21.83-36.6 20.83-37.6 19.53-37.6L15.83-37.6C14.53-37.6 13.53-36.6 13.53-35.3L13.53-35.3C13.53-34 14.53-33 15.83-33L19.53-33C20.83-32.9 21.83-34 21.83-35.3ZM48.43-0.3L48.43-0.3C49.73-0.3 50.73-1.3 50.73-2.6L50.73-6.3C50.73-7.6 49.73-8.6 48.43-8.6L48.43-8.6C47.13-8.6 46.13-7.6 46.13-6.3L46.13-2.6C46.13-1.3 47.13-0.3 48.43-0.3ZM48.43-61.9L48.43-61.9C49.73-61.9 50.73-62.9 50.73-64.2L50.73-67.9C50.73-69.2 49.73-70.2 48.43-70.2L48.43-70.2C47.13-70.2 46.13-69.2 46.13-67.9L46.13-64.2C46.13-62.9 47.13-61.9 48.43-61.9Z"/>
  </g>
  <g id="Ultralight-S" transform="matrix(1 0 0 1 512.411 696)">
   <path class="monochrome-0 SFSymbolsPreview000000" d="M39.833-55.6C40.433-57 41.733-58 43.233-58.3C44.533-58.5 45.933-58.6 47.233-58.6C60.133-58.6 70.533-48.1 70.533-35.3C70.533-33.9 70.433-32.6 70.233-31.3C69.933-29.8 68.933-28.5 67.533-27.9C67.533-27.9 67.533-27.9 67.533-27.9C64.933-26.7 61.933-26 58.933-26C47.333-26 37.933-35.4 37.933-47C37.933-50 38.633-52.9 39.833-55.6C39.833-55.6 39.833-55.6 39.833-55.6ZM34.333-54.7C34.833-55 35.433-55 35.933-54.7C36.433-54.4 36.633-53.8 36.433-53.2C35.933-51.2 35.633-49.1 35.633-47C35.633-34.1 46.133-23.7 58.933-23.7C61.133-23.7 63.133-24 65.133-24.5C65.733-24.7 66.333-24.5 66.633-24C66.933-23.5 67.033-22.9 66.633-22.4C62.433-16.1 55.333-12 47.233-12C34.333-12 23.933-22.5 23.933-35.3C23.933-43.4 28.133-50.5 34.333-54.7ZM66.133-54.1L66.133-54.1C66.633-53.6 67.333-53.6 67.733-54.1L72.033-58.4C72.533-58.9 72.533-59.6 72.033-60L72.033-60C71.533-60.5 70.833-60.5 70.433-60L66.133-55.7C65.633-55.3 65.633-54.5 66.133-54.1ZM72.033-10.5L72.033-10.5C72.533-11 72.533-11.7 72.033-12.1L67.733-16.4C67.233-16.9 66.533-16.9 66.133-16.4L66.133-16.4C65.633-15.9 65.633-15.2 66.133-14.8L70.433-10.5C70.833-10 71.633-10 72.033-10.5ZM28.533-54.1L28.533-54.1C29.033-54.6 29.033-55.3 28.533-55.7L24.233-60C23.733-60.5 23.033-60.5 22.633-60L22.633-60C22.133-59.5 22.133-58.8 22.633-58.4L26.933-54.1C27.333-53.6 28.033-53.6 28.533-54.1ZM22.533-10.5L22.533-10.5C23.033-10 23.733-10 24.133-10.5L28.433-14.8C28.933-15.3 28.933-16 28.433-16.4L28.433-16.4C27.933-16.9 27.233-16.9 26.833-16.4L22.533-12.1C22.133-11.7 22.133-11 22.533-10.5ZM82.333-35.3L82.333-35.3C82.333-35.9 81.833-36.5 81.133-36.5L75.033-36.5C74.433-36.5 73.833-36 73.833-35.3L73.833-35.3C73.833-34.7 74.333-34.1 75.033-34.1L81.133-34.1C81.833-34.1 82.333-34.6 82.333-35.3ZM20.733-35.3L20.733-35.3C20.733-35.9 20.233-36.5 19.533-36.5L13.433-36.5C12.833-36.5 12.233-36 12.233-35.3L12.233-35.3C12.233-34.7 12.733-34.1 13.433-34.1L19.533-34.1C20.233-34.1 20.733-34.6 20.733-35.3ZM47.333-0.3L47.333-0.3C47.933-0.3 48.533-0.8 48.533-1.5L48.533-7.6C48.533-8.2 48.033-8.8 47.333-8.8L47.333-8.8C46.733-8.8 46.133-8.3 46.133-7.6L46.133-1.5C46.133-0.8 46.633-0.3 47.333-0.3ZM47.333-61.9L47.333-61.9C47.933-61.9 48.533-62.4 48.533-63.1L48.533-69.2C48.533-69.8 48.033-70.4 47.333-70.4L47.333-70.4C46.733-70.4 46.133-69.9 46.133-69.2L46.133-63.1C46.133-62.4 46.633-61.9 47.333-61.9Z"/>
  </g>
 </g>
</svg>
