<?xml version="1.0" encoding="UTF-8"?>
<!--Generator: Apple Native CoreSVG 175.5-->
<!DOCTYPE svg
PUBLIC "-//W3C//DTD SVG 1.1//EN"
       "http://www.w3.org/Graphics/SVG/1.1/DTD/svg11.dtd">
<svg version="1.1" xmlns="http://www.w3.org/2000/svg" xmlns:xlink="http://www.w3.org/1999/xlink" width="3300" height="2200">
 <!--glyph: "", point size: 100.0, font version: "18.0d12e2", template writer version: "101"-->
 <style>.monochrome-0 {fill:#000000}

.SFSymbolsPreview000000 {fill:#000000;opacity:1.0}
</style>
 <g id="Notes">
  <rect height="2200" id="artboard" style="fill:white;opacity:1" width="3300" x="0" y="0"/>
  <line style="fill:none;stroke:black;opacity:1;stroke-width:0.5;" x1="263" x2="3036" y1="292" y2="292"/>
  <text style="stroke:none;fill:black;font-family:sans-serif;font-size:13;font-weight:bold;" transform="matrix(1 0 0 1 263 322)">Weight/Scale Variations</text>
  <text style="stroke:none;fill:black;font-family:sans-serif;font-size:13;text-anchor:middle;" transform="matrix(1 0 0 1 559.711 322)">Ultralight</text>
  <text style="stroke:none;fill:black;font-family:sans-serif;font-size:13;text-anchor:middle;" transform="matrix(1 0 0 1 856.422 322)">Thin</text>
  <text style="stroke:none;fill:black;font-family:sans-serif;font-size:13;text-anchor:middle;" transform="matrix(1 0 0 1 1153.13 322)">Light</text>
  <text style="stroke:none;fill:black;font-family:sans-serif;font-size:13;text-anchor:middle;" transform="matrix(1 0 0 1 1449.84 322)">Regular</text>
  <text style="stroke:none;fill:black;font-family:sans-serif;font-size:13;text-anchor:middle;" transform="matrix(1 0 0 1 1746.56 322)">Medium</text>
  <text style="stroke:none;fill:black;font-family:sans-serif;font-size:13;text-anchor:middle;" transform="matrix(1 0 0 1 2043.27 322)">Semibold</text>
  <text style="stroke:none;fill:black;font-family:sans-serif;font-size:13;text-anchor:middle;" transform="matrix(1 0 0 1 2339.98 322)">Bold</text>
  <text style="stroke:none;fill:black;font-family:sans-serif;font-size:13;text-anchor:middle;" transform="matrix(1 0 0 1 2636.69 322)">Heavy</text>
  <text style="stroke:none;fill:black;font-family:sans-serif;font-size:13;text-anchor:middle;" transform="matrix(1 0 0 1 2933.4 322)">Black</text>
  <line style="fill:none;stroke:black;opacity:1;stroke-width:0.5;" x1="263" x2="3036" y1="1903" y2="1903"/>
  <g transform="matrix(1 0 0 1 263 1933)">
   <path d="M9.24805 0.830078C13.5547 0.830078 17.1387-2.74414 17.1387-7.05078C17.1387-11.3574 13.5449-14.9316 9.23828-14.9316C4.94141-14.9316 1.36719-11.3574 1.36719-7.05078C1.36719-2.74414 4.95117 0.830078 9.24805 0.830078ZM9.24805-0.654297C5.70312-0.654297 2.87109-3.49609 2.87109-7.05078C2.87109-10.6055 5.69336-13.4473 9.23828-13.4473C12.793-13.4473 15.6445-10.6055 15.6445-7.05078C15.6445-3.49609 12.8027-0.654297 9.24805-0.654297ZM5.6543-7.05078C5.6543-6.62109 5.95703-6.32812 6.40625-6.32812L8.50586-6.32812L8.50586-4.20898C8.50586-3.76953 8.79883-3.4668 9.22852-3.4668C9.67773-3.4668 9.9707-3.76953 9.9707-4.20898L9.9707-6.32812L12.0898-6.32812C12.5293-6.32812 12.832-6.62109 12.832-7.05078C12.832-7.49023 12.5293-7.79297 12.0898-7.79297L9.9707-7.79297L9.9707-9.90234C9.9707-10.3516 9.67773-10.6543 9.22852-10.6543C8.79883-10.6543 8.50586-10.3516 8.50586-9.90234L8.50586-7.79297L6.40625-7.79297C5.95703-7.79297 5.6543-7.49023 5.6543-7.05078Z"/>
  </g>
  <g transform="matrix(1 0 0 1 281.867 1933)">
   <path d="M11.709 2.91016C17.1582 2.91016 21.6699-1.61133 21.6699-7.05078C21.6699-12.5 17.1484-17.0117 11.6992-17.0117C6.25977-17.0117 1.74805-12.5 1.74805-7.05078C1.74805-1.61133 6.26953 2.91016 11.709 2.91016ZM11.709 1.25C7.09961 1.25 3.41797-2.44141 3.41797-7.05078C3.41797-11.6602 7.08984-15.3516 11.6992-15.3516C16.3086-15.3516 20.0098-11.6602 20.0098-7.05078C20.0098-2.44141 16.3184 1.25 11.709 1.25ZM7.17773-7.05078C7.17773-6.57227 7.50977-6.25 8.00781-6.25L10.8789-6.25L10.8789-3.36914C10.8789-2.88086 11.2109-2.53906 11.6895-2.53906C12.1777-2.53906 12.5195-2.87109 12.5195-3.36914L12.5195-6.25L15.4004-6.25C15.8887-6.25 16.2305-6.57227 16.2305-7.05078C16.2305-7.53906 15.8887-7.88086 15.4004-7.88086L12.5195-7.88086L12.5195-10.752C12.5195-11.25 12.1777-11.5918 11.6895-11.5918C11.2109-11.5918 10.8789-11.25 10.8789-10.752L10.8789-7.88086L8.00781-7.88086C7.50977-7.88086 7.17773-7.53906 7.17773-7.05078Z"/>
  </g>
  <g transform="matrix(1 0 0 1 305.646 1933)">
   <path d="M14.9707 5.66406C21.9336 5.66406 27.6953-0.0976562 27.6953-7.05078C27.6953-14.0137 21.9238-19.7754 14.9609-19.7754C8.00781-19.7754 2.25586-14.0137 2.25586-7.05078C2.25586-0.0976562 8.01758 5.66406 14.9707 5.66406ZM14.9707 3.84766C8.93555 3.84766 4.08203-1.01562 4.08203-7.05078C4.08203-13.0957 8.92578-17.9492 14.9609-17.9492C21.0059-17.9492 25.8691-13.0957 25.8691-7.05078C25.8691-1.01562 21.0156 3.84766 14.9707 3.84766ZM9.19922-7.05078C9.19922-6.5332 9.57031-6.17188 10.1172-6.17188L14.0625-6.17188L14.0625-2.2168C14.0625-1.67969 14.4336-1.29883 14.9512-1.29883C15.4883-1.29883 15.8594-1.66992 15.8594-2.2168L15.8594-6.17188L19.8145-6.17188C20.3516-6.17188 20.7324-6.5332 20.7324-7.05078C20.7324-7.59766 20.3613-7.96875 19.8145-7.96875L15.8594-7.96875L15.8594-11.9141C15.8594-12.4609 15.4883-12.8418 14.9512-12.8418C14.4336-12.8418 14.0625-12.4609 14.0625-11.9141L14.0625-7.96875L10.1172-7.96875C9.57031-7.96875 9.19922-7.59766 9.19922-7.05078Z"/>
  </g>
  <text style="stroke:none;fill:black;font-family:sans-serif;font-size:13;font-weight:bold;" transform="matrix(1 0 0 1 263 1953)">Design Variations</text>
  <text style="stroke:none;fill:black;font-family:sans-serif;font-size:13;" transform="matrix(1 0 0 1 263 1971)">Symbols are supported in up to nine weights and three scales.</text>
  <text style="stroke:none;fill:black;font-family:sans-serif;font-size:13;" transform="matrix(1 0 0 1 263 1989)">For optimal layout with text and other symbols, vertically align</text>
  <text style="stroke:none;fill:black;font-family:sans-serif;font-size:13;" transform="matrix(1 0 0 1 263 2007)">symbols with the adjacent text.</text>
  <line style="fill:none;stroke:#00AEEF;stroke-width:0.5;opacity:1.0;" x1="776" x2="776" y1="1919" y2="1933"/>
  <g transform="matrix(1 0 0 1 776 1933)">
   <path d="M3.31055 0.15625C3.82812 0.15625 4.08203-0.0390625 4.26758-0.585938L5.52734-4.0332L11.2891-4.0332L12.5488-0.585938C12.7344-0.0390625 12.9883 0.15625 13.4961 0.15625C14.0137 0.15625 14.3457-0.15625 14.3457-0.644531C14.3457-0.810547 14.3164-0.966797 14.2383-1.17188L9.6582-13.3691C9.43359-13.9648 9.0332-14.2676 8.4082-14.2676C7.80273-14.2676 7.39258-13.9746 7.17773-13.3789L2.59766-1.16211C2.51953-0.957031 2.49023-0.800781 2.49023-0.634766C2.49023-0.146484 2.80273 0.15625 3.31055 0.15625ZM6.00586-5.51758L8.37891-12.0898L8.42773-12.0898L10.8008-5.51758Z"/>
  </g>
  <line style="fill:none;stroke:#00AEEF;stroke-width:0.5;opacity:1.0;" x1="793.197" x2="793.197" y1="1919" y2="1933"/>
  <text style="stroke:none;fill:black;font-family:sans-serif;font-size:13;font-weight:bold;" transform="matrix(1 0 0 1 776 1953)">Margins</text>
  <text style="stroke:none;fill:black;font-family:sans-serif;font-size:13;" transform="matrix(1 0 0 1 776 1971)">Leading and trailing margins on the left and right side of each symbol</text>
  <text style="stroke:none;fill:black;font-family:sans-serif;font-size:13;" transform="matrix(1 0 0 1 776 1989)">can be adjusted by modifying the x-location of the margin guidelines.</text>
  <text style="stroke:none;fill:black;font-family:sans-serif;font-size:13;" transform="matrix(1 0 0 1 776 2007)">Modifications are automatically applied proportionally to all</text>
  <text style="stroke:none;fill:black;font-family:sans-serif;font-size:13;" transform="matrix(1 0 0 1 776 2025)">scales and weights.</text>
  <g transform="matrix(1 0 0 1 1289 1933)">
   <path d="M2.8418 1.86523L4.54102 3.57422C5.40039 4.44336 6.38672 4.38477 7.31445 3.35938L18.0078-8.42773L17.041-9.4043L6.42578 2.27539C6.07422 2.67578 5.74219 2.77344 5.27344 2.30469L4.10156 1.14258C3.63281 0.683594 3.74023 0.341797 4.14062-0.0195312L15.6152-10.8203L14.6387-11.7871L3.04688-0.898438C2.06055 0.0195312 1.98242 0.996094 2.8418 1.86523ZM9.25781-16.3281C8.83789-15.918 8.80859-15.3418 9.04297-14.9512C9.27734-14.5898 9.73633-14.3555 10.3809-14.5215C11.8457-14.8633 13.3691-14.9219 14.7949-13.9844L14.209-12.5293C13.8672-11.6992 14.043-11.1133 14.5801-10.5664L16.875-8.25195C17.3633-7.76367 17.7734-7.74414 18.3398-7.8418L19.4043-8.03711L20.0684-7.36328L20.0293-6.80664C19.9902-6.30859 20.1172-5.92773 20.6055-5.44922L21.3672-4.70703C21.8457-4.22852 22.4609-4.19922 22.9297-4.66797L25.8398-7.58789C26.3086-8.05664 26.2891-8.65234 25.8105-9.13086L25.0391-9.89258C24.5605-10.3711 24.1895-10.5273 23.7109-10.4883L23.1348-10.4395L22.4902-11.0742L22.7344-12.1973C22.8613-12.7637 22.7051-13.2031 22.1191-13.7891L19.9219-15.9766C16.582-19.2969 12.1484-19.2188 9.25781-16.3281ZM10.752-15.957C13.1836-17.7344 16.4746-17.4316 18.7012-15.2051L21.1328-12.793C21.3672-12.5586 21.4062-12.373 21.3379-12.0312L21.0156-10.5469L22.5195-9.0625L23.5059-9.12109C23.7598-9.13086 23.8379-9.11133 24.0332-8.91602L24.6094-8.33984L22.168-5.89844L21.5918-6.47461C21.3965-6.66992 21.3672-6.74805 21.377-7.01172L21.4453-7.98828L19.9512-9.47266L18.4277-9.21875C18.1055-9.15039 17.959-9.17969 17.7148-9.41406L15.7129-11.416C15.459-11.6504 15.4297-11.8164 15.5859-12.1875L16.4648-14.2773C14.9023-15.7324 12.8711-16.3574 10.8398-15.7617C10.6836-15.7227 10.625-15.8496 10.752-15.957Z"/>
  </g>
  <text style="stroke:none;fill:black;font-family:sans-serif;font-size:13;font-weight:bold;" transform="matrix(1 0 0 1 1289 1953)">Exporting</text>
  <text style="stroke:none;fill:black;font-family:sans-serif;font-size:13;" transform="matrix(1 0 0 1 1289 1971)">Symbols should be outlined when exporting to ensure the</text>
  <text style="stroke:none;fill:black;font-family:sans-serif;font-size:13;" transform="matrix(1 0 0 1 1289 1989)">design is preserved when submitting to Xcode.</text>
  <text id="template-version" style="stroke:none;fill:black;font-family:sans-serif;font-size:13;text-anchor:end;" transform="matrix(1 0 0 1 3036 1933)">Template v.4.0</text>
  <text style="stroke:none;fill:black;font-family:sans-serif;font-size:13;text-anchor:end;" transform="matrix(1 0 0 1 3036 1951)">Requires Xcode 14 or greater</text>
  <text id="descriptive-name" style="stroke:none;fill:black;font-family:sans-serif;font-size:13;text-anchor:end;" transform="matrix(1 0 0 1 3036 1969)">Generated from kids</text>
  <text style="stroke:none;fill:black;font-family:sans-serif;font-size:13;text-anchor:end;" transform="matrix(1 0 0 1 3036 1987)">Typeset at 100 points</text>
  <text style="stroke:none;fill:black;font-family:sans-serif;font-size:13;" transform="matrix(1 0 0 1 263 726)">Small</text>
  <text style="stroke:none;fill:black;font-family:sans-serif;font-size:13;" transform="matrix(1 0 0 1 263 1156)">Medium</text>
  <text style="stroke:none;fill:black;font-family:sans-serif;font-size:13;" transform="matrix(1 0 0 1 263 1586)">Large</text>
 </g>
 <g id="Guides">
  <g id="H-reference" style="fill:#27AAE1;stroke:none;" transform="matrix(1 0 0 1 339 696)">
   <path d="M0.993654 0L3.63775 0L29.3281-67.1323L30.0303-67.1323L30.0303-70.459L28.1226-70.459ZM11.6885-24.4799L46.9815-24.4799L46.2315-26.7285L12.4385-26.7285ZM55.1196 0L57.7637 0L30.6382-70.459L29.4326-70.459L29.4326-67.1323Z"/>
  </g>
  <line id="Baseline-S" style="fill:none;stroke:#27AAE1;opacity:1;stroke-width:0.5;" x1="263" x2="3036" y1="696" y2="696"/>
  <line id="Capline-S" style="fill:none;stroke:#27AAE1;opacity:1;stroke-width:0.5;" x1="263" x2="3036" y1="625.541" y2="625.541"/>
  <g id="H-reference" style="fill:#27AAE1;stroke:none;" transform="matrix(1 0 0 1 339 1126)">
   <path d="M0.993654 0L3.63775 0L29.3281-67.1323L30.0303-67.1323L30.0303-70.459L28.1226-70.459ZM11.6885-24.4799L46.9815-24.4799L46.2315-26.7285L12.4385-26.7285ZM55.1196 0L57.7637 0L30.6382-70.459L29.4326-70.459L29.4326-67.1323Z"/>
  </g>
  <line id="Baseline-M" style="fill:none;stroke:#27AAE1;opacity:1;stroke-width:0.5;" x1="263" x2="3036" y1="1126" y2="1126"/>
  <line id="Capline-M" style="fill:none;stroke:#27AAE1;opacity:1;stroke-width:0.5;" x1="263" x2="3036" y1="1055.54" y2="1055.54"/>
  <g id="H-reference" style="fill:#27AAE1;stroke:none;" transform="matrix(1 0 0 1 339 1556)">
   <path d="M0.993654 0L3.63775 0L29.3281-67.1323L30.0303-67.1323L30.0303-70.459L28.1226-70.459ZM11.6885-24.4799L46.9815-24.4799L46.2315-26.7285L12.4385-26.7285ZM55.1196 0L57.7637 0L30.6382-70.459L29.4326-70.459L29.4326-67.1323Z"/>
  </g>
  <line id="Baseline-L" style="fill:none;stroke:#27AAE1;opacity:1;stroke-width:0.5;" x1="263" x2="3036" y1="1556" y2="1556"/>
  <line id="Capline-L" style="fill:none;stroke:#27AAE1;opacity:1;stroke-width:0.5;" x1="263" x2="3036" y1="1485.54" y2="1485.54"/>
  <line id="left-margin-Ultralight-S" style="fill:none;stroke:#00AEEF;stroke-width:0.5;opacity:1.0;" x1="512.411" x2="512.411" y1="600.785" y2="720.121"/>
  <line id="right-margin-Ultralight-S" style="fill:none;stroke:#00AEEF;stroke-width:0.5;opacity:1.0;" x1="607.011" x2="607.011" y1="600.785" y2="720.121"/>
  <line id="left-margin-Regular-S" style="fill:none;stroke:#00AEEF;stroke-width:0.5;opacity:1.0;" x1="1401.39" x2="1401.39" y1="600.785" y2="720.121"/>
  <line id="right-margin-Regular-S" style="fill:none;stroke:#00AEEF;stroke-width:0.5;opacity:1.0;" x1="1498.29" x2="1498.29" y1="600.785" y2="720.121"/>
  <line id="left-margin-Black-S" style="fill:none;stroke:#00AEEF;stroke-width:0.5;opacity:1.0;" x1="2878.15" x2="2878.15" y1="600.785" y2="720.121"/>
  <line id="right-margin-Black-S" style="fill:none;stroke:#00AEEF;stroke-width:0.5;opacity:1.0;" x1="2988.65" x2="2988.65" y1="600.785" y2="720.121"/>
 </g>
 <g id="Symbols">
  <g id="Black-S" transform="matrix(1 0 0 1 2878.15 696)">
   <path class="monochrome-0 SFSymbolsPreview000000" d="M80.75 2.2L62.55 2.2C55.85 2.2 50.45-3.2 50.45-9.9L50.45-28C50.45-34.7 55.85-40.1 62.55-40.1L80.65-40.1C87.35-40.1 92.75-34.7 92.75-28L92.75-9.9C92.75-3.2 87.35 2.2 80.75 2.2ZM48.05 2.2L29.85 2.2C23.15 2.2 17.75-3.2 17.75-9.9L17.75-28C17.75-34.7 23.15-40.1 29.85-40.1L48.05-40.1C54.75-40.1 60.15-34.7 60.15-28L60.15-9.9C60.15-3.2 54.75 2.2 48.05 2.2ZM64.35-30.4L46.25-30.4C39.55-30.4 34.15-35.8 34.15-42.5L34.15-60.6C34.15-67.3 39.55-72.7 46.25-72.7L64.35-72.7C71.05-72.7 76.45-67.3 76.45-60.6L76.45-42.5C76.45-35.8 71.05-30.4 64.35-30.4ZM46.25-63.1C44.95-63.1 43.85-62 43.85-60.7L43.85-42.6C43.85-41.3 44.95-40.2 46.25-40.2L64.35-40.2C65.65-40.2 66.75-41.3 66.75-42.6L66.75-60.7C66.75-62 65.65-63.1 64.35-63.1L46.25-63.1ZM62.55-30.4C61.25-30.4 60.15-29.3 60.15-28L60.15-9.9C60.15-8.6 61.25-7.5 62.55-7.5L80.65-7.5C81.95-7.5 83.05-8.6 83.05-9.9L83.05-28C83.05-29.3 81.95-30.4 80.65-30.4L62.55-30.4ZM29.85-30.4C28.55-30.4 27.45-29.3 27.45-28L27.45-9.9C27.45-8.6 28.55-7.5 29.85-7.5L48.05-7.5C49.35-7.5 50.45-8.6 50.45-9.9L50.45-28C50.45-29.3 49.35-30.4 48.05-30.4L29.85-30.4ZM44.15-16.2C44.15-13.9 42.45-12.2 39.15-12.2L35.65-12.2C34.65-12.2 33.85-12.9 33.85-14L33.85-24C33.85-25 34.55-25.8 35.65-25.8L38.95-25.8C41.15-25.8 43.25-24.7 43.25-22.4C43.25-21.4 42.85-20.4 41.55-19.8C43.55-18.9 44.15-17.6 44.15-16.2ZM61.65-46.1C61.65-45.3 60.95-44.7 60.15-44.7C59.35-44.7 58.85-45.1 58.65-45.7L57.85-47.5L52.85-47.5L52.05-45.7C51.75-45.1 51.25-44.7 50.55-44.7C49.75-44.7 49.05-45.4 49.05-46.1C49.05-46.4 49.15-46.8 49.25-47L53.85-57.2C54.15-58 54.75-58.4 55.35-58.4C56.05-58.4 56.55-58 56.85-57.2L61.45-47C61.55-46.8 61.65-46.5 61.65-46.1ZM77.25-14.6C77.25-13.8 76.75-13.3 75.75-12.7C75.05-12.3 74.05-12 72.75-12C69.35-12 65.85-14.8 65.85-18.9C65.85-23 69.35-25.8 72.65-25.8C73.95-25.8 74.95-25.5 75.75-25.1C76.65-24.6 77.15-24 77.15-23.2C77.15-22.3 76.45-21.8 75.65-21.8C75.05-21.8 74.65-22.1 74.45-22.2C74.35-22.3 73.75-22.8 72.65-22.8C70.65-22.8 69.05-21.1 69.05-18.9C69.05-16.8 70.65-15 72.65-15C73.65-15 74.25-15.5 74.35-15.6C74.55-15.7 74.95-16 75.55-16C76.55-16 77.25-15.5 77.25-14.6ZM41.05-16.5C41.05-17.3 40.65-18.2 39.15-18.2L37.05-18.2L37.05-14.9L39.15-14.9C40.65-14.8 41.05-15.7 41.05-16.5ZM56.75-50L55.25-53.4L53.85-50L56.75-50ZM36.95-20.6L38.85-20.6C39.55-20.6 40.05-21.2 40.05-21.9C40.05-22.7 39.55-23.1 38.85-23.1L36.95-23.1L36.95-20.6Z"/>
  </g>
  <g id="Regular-S" transform="matrix(1 0 0 1 1401.39 696)">
   <path class="monochrome-0 SFSymbolsPreview000000" d="M72.93-0.3L55.43-0.3C49.63-0.3 44.93-5 44.93-10.8L44.93-28.3C44.93-34.1 49.63-38.8 55.43-38.8L72.93-38.8C78.73-38.8 83.43-34.1 83.43-28.3L83.43-10.8C83.43-5 78.73-0.3 72.93-0.3ZM41.43-0.3L23.93-0.3C18.13-0.3 13.43-5 13.43-10.8L13.43-28.3C13.43-34.1 18.13-38.8 23.93-38.8L41.43-38.8C47.23-38.8 51.93-34.1 51.93-28.3L51.93-10.8C51.93-5 47.23-0.3 41.43-0.3ZM57.23-31.8L39.73-31.8C33.93-31.8 29.23-36.5 29.23-42.3L29.23-59.8C29.23-65.6 33.93-70.3 39.73-70.3L57.23-70.3C63.03-70.3 67.73-65.6 67.73-59.8L67.73-42.3C67.73-36.5 63.03-31.8 57.23-31.8ZM39.73-63.3C37.83-63.3 36.23-61.7 36.23-59.8L36.23-42.3C36.23-40.4 37.83-38.8 39.73-38.8L57.23-38.8C59.13-38.8 60.73-40.4 60.73-42.3L60.73-59.8C60.73-61.7 59.13-63.3 57.23-63.3L39.73-63.3ZM55.43-31.8C53.53-31.8 51.93-30.2 51.93-28.3L51.93-10.8C51.93-8.9 53.53-7.3 55.43-7.3L72.93-7.3C74.83-7.3 76.43-8.9 76.43-10.8L76.43-28.3C76.43-30.2 74.83-31.8 72.93-31.8L55.43-31.8ZM23.93-31.8C22.03-31.8 20.43-30.2 20.43-28.3L20.43-10.8C20.43-8.9 22.03-7.3 23.93-7.3L41.43-7.3C43.33-7.3 44.93-8.9 44.93-10.8L44.93-28.3C44.93-30.2 43.33-31.8 41.43-31.8L23.93-31.8ZM37.63-16.9C37.63-14.6 36.03-13 32.83-13L29.43-13C28.43-13 27.73-13.7 27.73-14.7L27.73-24.4C27.73-25.4 28.43-26.1 29.43-26.1L32.63-26.1C34.83-26.1 36.73-25.1 36.73-22.8C36.73-21.8 36.33-20.8 35.13-20.3C37.03-19.5 37.63-18.2 37.63-16.9ZM54.43-45.5C54.43-44.9 53.93-44.4 53.23-44.4C52.63-44.4 52.23-44.7 52.03-45.2L51.03-47.4L45.73-47.4L44.73-45.2C44.53-44.7 44.13-44.4 43.53-44.4C42.83-44.4 42.33-44.9 42.33-45.5C42.33-45.8 42.43-46 42.53-46.2L47.13-56.7C47.43-57.3 47.83-57.6 48.33-57.6C48.93-57.6 49.33-57.3 49.53-56.7L54.13-46.2C54.43-46 54.43-45.8 54.43-45.5ZM69.63-15.3C69.63-14.5 69.13-14 68.23-13.5C67.53-13.1 66.53-12.8 65.33-12.8C62.03-12.8 58.73-15.5 58.73-19.5C58.73-23.4 62.13-26.2 65.33-26.2C66.63-26.2 67.53-25.9 68.23-25.5C69.03-25 69.63-24.5 69.63-23.7C69.63-22.8 68.93-22.3 68.23-22.3C67.63-22.3 67.23-22.6 67.03-22.7C66.93-22.8 66.33-23.2 65.33-23.2C63.43-23.2 61.93-21.5 61.93-19.4C61.93-17.3 63.43-15.6 65.43-15.6C66.43-15.6 66.93-16.1 67.13-16.1C67.33-16.2 67.73-16.5 68.33-16.5C68.93-16.7 69.63-16.2 69.63-15.3ZM34.63-17.1C34.63-17.8 34.23-18.7 32.83-18.7L30.73-18.7L30.73-15.5L32.83-15.5C34.23-15.5 34.63-16.4 34.63-17.1ZM50.23-49.4L48.43-53.6L46.63-49.4L50.23-49.4ZM30.83-21.1L32.63-21.1C33.33-21.1 33.73-21.7 33.73-22.4C33.73-23.2 33.23-23.5 32.63-23.5L30.83-23.5L30.83-21.1Z"/>
  </g>
  <g id="Ultralight-S" transform="matrix(1 0 0 1 512.411 696)">
   <path class="monochrome-0 SFSymbolsPreview000000" d="M71.733-2.8L54.233-2.8C49.733-2.8 46.133-6.4 46.133-10.9L46.133-28.3C46.133-32.8 49.733-36.4 54.233-36.4L71.633-36.4C76.133-36.4 79.733-32.8 79.733-28.3L79.733-10.9C79.833-6.4 76.133-2.8 71.733-2.8ZM40.333-2.8L22.933-2.8C18.433-2.8 14.833-6.4 14.833-10.9L14.833-28.3C14.833-32.8 18.433-36.4 22.933-36.4L40.333-36.4C44.833-36.4 48.433-32.8 48.433-28.3L48.433-10.9C48.433-6.4 44.833-2.8 40.333-2.8ZM56.033-34.1L38.633-34.1C34.133-34.1 30.533-37.7 30.533-42.2L30.533-59.6C30.533-64.1 34.133-67.7 38.633-67.7L56.033-67.7C60.533-67.7 64.133-64.1 64.133-59.6L64.133-42.2C64.133-37.7 60.533-34.1 56.033-34.1ZM38.633-65.4C35.433-65.4 32.833-62.8 32.833-59.6L32.833-42.2C32.833-39 35.433-36.4 38.633-36.4L56.033-36.4C59.233-36.4 61.833-39 61.833-42.2L61.833-59.6C61.833-62.8 59.233-65.4 56.033-65.4L38.633-65.4ZM54.233-34.1C51.033-34.1 48.433-31.5 48.433-28.3L48.433-10.9C48.433-7.7 51.033-5.1 54.233-5.1L71.633-5.1C74.833-5.1 77.433-7.7 77.433-10.9L77.433-28.3C77.433-31.5 74.833-34.1 71.633-34.1L54.233-34.1ZM22.933-34.1C19.733-34.1 17.133-31.5 17.133-28.3L17.133-10.9C17.133-7.7 19.733-5.1 22.933-5.1L40.333-5.1C43.533-5.1 46.133-7.7 46.133-10.9L46.133-28.3C46.133-31.5 43.533-34.1 40.333-34.1L22.933-34.1ZM36.033-16.7C36.033-14.4 34.333-13 31.233-13L27.933-13C27.533-13 27.233-13.3 27.233-13.7L27.233-25.3C27.233-25.7 27.533-26 27.933-26L31.133-26C33.733-26 35.233-24.7 35.233-22.8C35.233-21.6 34.633-20.6 33.233-20.2C35.233-19.6 36.033-18.4 36.033-16.7ZM53.133-44.9C53.133-44.6 52.833-44.3 52.533-44.3C52.233-44.3 52.033-44.5 51.933-44.7L50.533-48L44.233-48L42.833-44.7C42.733-44.5 42.533-44.3 42.233-44.3C41.833-44.3 41.633-44.6 41.633-44.9C41.633-45 41.633-45.1 41.733-45.2L46.733-57C46.833-57.3 47.033-57.5 47.333-57.5C47.633-57.5 47.833-57.3 47.933-57L53.033-45.3C53.133-45.2 53.133-45.1 53.133-44.9ZM68.233-14.8C68.233-14.6 68.033-14.3 67.733-14.1C66.833-13.4 65.633-13 64.233-13C61.033-13 57.733-15.7 57.733-19.6C57.733-23.5 60.933-26.2 64.233-26.2C65.633-26.2 66.733-25.8 67.733-25.1C68.133-24.8 68.233-24.6 68.233-24.4C68.233-24 67.933-23.8 67.633-23.8C67.333-23.8 67.233-23.9 66.933-24.2C66.333-24.7 65.333-25.1 64.233-25.1C61.633-25.1 59.033-22.9 59.033-19.7C59.033-16.5 61.633-14.3 64.133-14.3C65.233-14.3 66.233-14.7 66.833-15.2C67.133-15.4 67.333-15.6 67.533-15.6C67.933-15.4 68.233-15.2 68.233-14.8ZM34.833-16.8C34.833-18.5 33.633-19.6 31.333-19.6L28.633-19.6L28.633-14.2L31.333-14.2C33.633-14.2 34.833-15.1 34.833-16.8ZM50.033-49.1L47.333-55.3L44.633-49.1L50.033-49.1ZM28.533-20.6L31.233-20.6C33.133-20.6 34.033-21.3 34.033-22.7C34.033-24.1 33.033-24.9 31.233-24.9L28.533-24.9L28.533-20.6Z"/>
  </g>
 </g>
</svg>
