<?xml version="1.0" encoding="UTF-8"?>
<!--Generator: Apple Native CoreSVG 175.5-->
<!DOCTYPE svg
PUBLIC "-//W3C//DTD SVG 1.1//EN"
       "http://www.w3.org/Graphics/SVG/1.1/DTD/svg11.dtd">
<svg version="1.1" xmlns="http://www.w3.org/2000/svg" xmlns:xlink="http://www.w3.org/1999/xlink" width="3300" height="2200">
 <!--glyph: "", point size: 100.0, font version: "18.0d12e2", template writer version: "101"-->
 <style>.monochrome-0 {fill:#000000}

.SFSymbolsPreview000000 {fill:#000000;opacity:1.0}
</style>
 <g id="Notes">
  <rect height="2200" id="artboard" style="fill:white;opacity:1" width="3300" x="0" y="0"/>
  <line style="fill:none;stroke:black;opacity:1;stroke-width:0.5;" x1="263" x2="3036" y1="292" y2="292"/>
  <text style="stroke:none;fill:black;font-family:sans-serif;font-size:13;font-weight:bold;" transform="matrix(1 0 0 1 263 322)">Weight/Scale Variations</text>
  <text style="stroke:none;fill:black;font-family:sans-serif;font-size:13;text-anchor:middle;" transform="matrix(1 0 0 1 559.711 322)">Ultralight</text>
  <text style="stroke:none;fill:black;font-family:sans-serif;font-size:13;text-anchor:middle;" transform="matrix(1 0 0 1 856.422 322)">Thin</text>
  <text style="stroke:none;fill:black;font-family:sans-serif;font-size:13;text-anchor:middle;" transform="matrix(1 0 0 1 1153.13 322)">Light</text>
  <text style="stroke:none;fill:black;font-family:sans-serif;font-size:13;text-anchor:middle;" transform="matrix(1 0 0 1 1449.84 322)">Regular</text>
  <text style="stroke:none;fill:black;font-family:sans-serif;font-size:13;text-anchor:middle;" transform="matrix(1 0 0 1 1746.56 322)">Medium</text>
  <text style="stroke:none;fill:black;font-family:sans-serif;font-size:13;text-anchor:middle;" transform="matrix(1 0 0 1 2043.27 322)">Semibold</text>
  <text style="stroke:none;fill:black;font-family:sans-serif;font-size:13;text-anchor:middle;" transform="matrix(1 0 0 1 2339.98 322)">Bold</text>
  <text style="stroke:none;fill:black;font-family:sans-serif;font-size:13;text-anchor:middle;" transform="matrix(1 0 0 1 2636.69 322)">Heavy</text>
  <text style="stroke:none;fill:black;font-family:sans-serif;font-size:13;text-anchor:middle;" transform="matrix(1 0 0 1 2933.4 322)">Black</text>
  <line style="fill:none;stroke:black;opacity:1;stroke-width:0.5;" x1="263" x2="3036" y1="1903" y2="1903"/>
  <g transform="matrix(1 0 0 1 263 1933)">
   <path d="M9.24805 0.830078C13.5547 0.830078 17.1387-2.74414 17.1387-7.05078C17.1387-11.3574 13.5449-14.9316 9.23828-14.9316C4.94141-14.9316 1.36719-11.3574 1.36719-7.05078C1.36719-2.74414 4.95117 0.830078 9.24805 0.830078ZM9.24805-0.654297C5.70312-0.654297 2.87109-3.49609 2.87109-7.05078C2.87109-10.6055 5.69336-13.4473 9.23828-13.4473C12.793-13.4473 15.6445-10.6055 15.6445-7.05078C15.6445-3.49609 12.8027-0.654297 9.24805-0.654297ZM5.6543-7.05078C5.6543-6.62109 5.95703-6.32812 6.40625-6.32812L8.50586-6.32812L8.50586-4.20898C8.50586-3.76953 8.79883-3.4668 9.22852-3.4668C9.67773-3.4668 9.9707-3.76953 9.9707-4.20898L9.9707-6.32812L12.0898-6.32812C12.5293-6.32812 12.832-6.62109 12.832-7.05078C12.832-7.49023 12.5293-7.79297 12.0898-7.79297L9.9707-7.79297L9.9707-9.90234C9.9707-10.3516 9.67773-10.6543 9.22852-10.6543C8.79883-10.6543 8.50586-10.3516 8.50586-9.90234L8.50586-7.79297L6.40625-7.79297C5.95703-7.79297 5.6543-7.49023 5.6543-7.05078Z"/>
  </g>
  <g transform="matrix(1 0 0 1 281.867 1933)">
   <path d="M11.709 2.91016C17.1582 2.91016 21.6699-1.61133 21.6699-7.05078C21.6699-12.5 17.1484-17.0117 11.6992-17.0117C6.25977-17.0117 1.74805-12.5 1.74805-7.05078C1.74805-1.61133 6.26953 2.91016 11.709 2.91016ZM11.709 1.25C7.09961 1.25 3.41797-2.44141 3.41797-7.05078C3.41797-11.6602 7.08984-15.3516 11.6992-15.3516C16.3086-15.3516 20.0098-11.6602 20.0098-7.05078C20.0098-2.44141 16.3184 1.25 11.709 1.25ZM7.17773-7.05078C7.17773-6.57227 7.50977-6.25 8.00781-6.25L10.8789-6.25L10.8789-3.36914C10.8789-2.88086 11.2109-2.53906 11.6895-2.53906C12.1777-2.53906 12.5195-2.87109 12.5195-3.36914L12.5195-6.25L15.4004-6.25C15.8887-6.25 16.2305-6.57227 16.2305-7.05078C16.2305-7.53906 15.8887-7.88086 15.4004-7.88086L12.5195-7.88086L12.5195-10.752C12.5195-11.25 12.1777-11.5918 11.6895-11.5918C11.2109-11.5918 10.8789-11.25 10.8789-10.752L10.8789-7.88086L8.00781-7.88086C7.50977-7.88086 7.17773-7.53906 7.17773-7.05078Z"/>
  </g>
  <g transform="matrix(1 0 0 1 305.646 1933)">
   <path d="M14.9707 5.66406C21.9336 5.66406 27.6953-0.0976562 27.6953-7.05078C27.6953-14.0137 21.9238-19.7754 14.9609-19.7754C8.00781-19.7754 2.25586-14.0137 2.25586-7.05078C2.25586-0.0976562 8.01758 5.66406 14.9707 5.66406ZM14.9707 3.84766C8.93555 3.84766 4.08203-1.01562 4.08203-7.05078C4.08203-13.0957 8.92578-17.9492 14.9609-17.9492C21.0059-17.9492 25.8691-13.0957 25.8691-7.05078C25.8691-1.01562 21.0156 3.84766 14.9707 3.84766ZM9.19922-7.05078C9.19922-6.5332 9.57031-6.17188 10.1172-6.17188L14.0625-6.17188L14.0625-2.2168C14.0625-1.67969 14.4336-1.29883 14.9512-1.29883C15.4883-1.29883 15.8594-1.66992 15.8594-2.2168L15.8594-6.17188L19.8145-6.17188C20.3516-6.17188 20.7324-6.5332 20.7324-7.05078C20.7324-7.59766 20.3613-7.96875 19.8145-7.96875L15.8594-7.96875L15.8594-11.9141C15.8594-12.4609 15.4883-12.8418 14.9512-12.8418C14.4336-12.8418 14.0625-12.4609 14.0625-11.9141L14.0625-7.96875L10.1172-7.96875C9.57031-7.96875 9.19922-7.59766 9.19922-7.05078Z"/>
  </g>
  <text style="stroke:none;fill:black;font-family:sans-serif;font-size:13;font-weight:bold;" transform="matrix(1 0 0 1 263 1953)">Design Variations</text>
  <text style="stroke:none;fill:black;font-family:sans-serif;font-size:13;" transform="matrix(1 0 0 1 263 1971)">Symbols are supported in up to nine weights and three scales.</text>
  <text style="stroke:none;fill:black;font-family:sans-serif;font-size:13;" transform="matrix(1 0 0 1 263 1989)">For optimal layout with text and other symbols, vertically align</text>
  <text style="stroke:none;fill:black;font-family:sans-serif;font-size:13;" transform="matrix(1 0 0 1 263 2007)">symbols with the adjacent text.</text>
  <line style="fill:none;stroke:#00AEEF;stroke-width:0.5;opacity:1.0;" x1="776" x2="776" y1="1919" y2="1933"/>
  <g transform="matrix(1 0 0 1 776 1933)">
   <path d="M3.31055 0.15625C3.82812 0.15625 4.08203-0.0390625 4.26758-0.585938L5.52734-4.0332L11.2891-4.0332L12.5488-0.585938C12.7344-0.0390625 12.9883 0.15625 13.4961 0.15625C14.0137 0.15625 14.3457-0.15625 14.3457-0.644531C14.3457-0.810547 14.3164-0.966797 14.2383-1.17188L9.6582-13.3691C9.43359-13.9648 9.0332-14.2676 8.4082-14.2676C7.80273-14.2676 7.39258-13.9746 7.17773-13.3789L2.59766-1.16211C2.51953-0.957031 2.49023-0.800781 2.49023-0.634766C2.49023-0.146484 2.80273 0.15625 3.31055 0.15625ZM6.00586-5.51758L8.37891-12.0898L8.42773-12.0898L10.8008-5.51758Z"/>
  </g>
  <line style="fill:none;stroke:#00AEEF;stroke-width:0.5;opacity:1.0;" x1="793.197" x2="793.197" y1="1919" y2="1933"/>
  <text style="stroke:none;fill:black;font-family:sans-serif;font-size:13;font-weight:bold;" transform="matrix(1 0 0 1 776 1953)">Margins</text>
  <text style="stroke:none;fill:black;font-family:sans-serif;font-size:13;" transform="matrix(1 0 0 1 776 1971)">Leading and trailing margins on the left and right side of each symbol</text>
  <text style="stroke:none;fill:black;font-family:sans-serif;font-size:13;" transform="matrix(1 0 0 1 776 1989)">can be adjusted by modifying the x-location of the margin guidelines.</text>
  <text style="stroke:none;fill:black;font-family:sans-serif;font-size:13;" transform="matrix(1 0 0 1 776 2007)">Modifications are automatically applied proportionally to all</text>
  <text style="stroke:none;fill:black;font-family:sans-serif;font-size:13;" transform="matrix(1 0 0 1 776 2025)">scales and weights.</text>
  <g transform="matrix(1 0 0 1 1289 1933)">
   <path d="M2.8418 1.86523L4.54102 3.57422C5.40039 4.44336 6.38672 4.38477 7.31445 3.35938L18.0078-8.42773L17.041-9.4043L6.42578 2.27539C6.07422 2.67578 5.74219 2.77344 5.27344 2.30469L4.10156 1.14258C3.63281 0.683594 3.74023 0.341797 4.14062-0.0195312L15.6152-10.8203L14.6387-11.7871L3.04688-0.898438C2.06055 0.0195312 1.98242 0.996094 2.8418 1.86523ZM9.25781-16.3281C8.83789-15.918 8.80859-15.3418 9.04297-14.9512C9.27734-14.5898 9.73633-14.3555 10.3809-14.5215C11.8457-14.8633 13.3691-14.9219 14.7949-13.9844L14.209-12.5293C13.8672-11.6992 14.043-11.1133 14.5801-10.5664L16.875-8.25195C17.3633-7.76367 17.7734-7.74414 18.3398-7.8418L19.4043-8.03711L20.0684-7.36328L20.0293-6.80664C19.9902-6.30859 20.1172-5.92773 20.6055-5.44922L21.3672-4.70703C21.8457-4.22852 22.4609-4.19922 22.9297-4.66797L25.8398-7.58789C26.3086-8.05664 26.2891-8.65234 25.8105-9.13086L25.0391-9.89258C24.5605-10.3711 24.1895-10.5273 23.7109-10.4883L23.1348-10.4395L22.4902-11.0742L22.7344-12.1973C22.8613-12.7637 22.7051-13.2031 22.1191-13.7891L19.9219-15.9766C16.582-19.2969 12.1484-19.2188 9.25781-16.3281ZM10.752-15.957C13.1836-17.7344 16.4746-17.4316 18.7012-15.2051L21.1328-12.793C21.3672-12.5586 21.4062-12.373 21.3379-12.0312L21.0156-10.5469L22.5195-9.0625L23.5059-9.12109C23.7598-9.13086 23.8379-9.11133 24.0332-8.91602L24.6094-8.33984L22.168-5.89844L21.5918-6.47461C21.3965-6.66992 21.3672-6.74805 21.377-7.01172L21.4453-7.98828L19.9512-9.47266L18.4277-9.21875C18.1055-9.15039 17.959-9.17969 17.7148-9.41406L15.7129-11.416C15.459-11.6504 15.4297-11.8164 15.5859-12.1875L16.4648-14.2773C14.9023-15.7324 12.8711-16.3574 10.8398-15.7617C10.6836-15.7227 10.625-15.8496 10.752-15.957Z"/>
  </g>
  <text style="stroke:none;fill:black;font-family:sans-serif;font-size:13;font-weight:bold;" transform="matrix(1 0 0 1 1289 1953)">Exporting</text>
  <text style="stroke:none;fill:black;font-family:sans-serif;font-size:13;" transform="matrix(1 0 0 1 1289 1971)">Symbols should be outlined when exporting to ensure the</text>
  <text style="stroke:none;fill:black;font-family:sans-serif;font-size:13;" transform="matrix(1 0 0 1 1289 1989)">design is preserved when submitting to Xcode.</text>
  <text id="template-version" style="stroke:none;fill:black;font-family:sans-serif;font-size:13;text-anchor:end;" transform="matrix(1 0 0 1 3036 1933)">Template v.4.0</text>
  <text style="stroke:none;fill:black;font-family:sans-serif;font-size:13;text-anchor:end;" transform="matrix(1 0 0 1 3036 1951)">Requires Xcode 14 or greater</text>
  <text id="descriptive-name" style="stroke:none;fill:black;font-family:sans-serif;font-size:13;text-anchor:end;" transform="matrix(1 0 0 1 3036 1969)">Generated from kids.fill</text>
  <text style="stroke:none;fill:black;font-family:sans-serif;font-size:13;text-anchor:end;" transform="matrix(1 0 0 1 3036 1987)">Typeset at 100 points</text>
  <text style="stroke:none;fill:black;font-family:sans-serif;font-size:13;" transform="matrix(1 0 0 1 263 726)">Small</text>
  <text style="stroke:none;fill:black;font-family:sans-serif;font-size:13;" transform="matrix(1 0 0 1 263 1156)">Medium</text>
  <text style="stroke:none;fill:black;font-family:sans-serif;font-size:13;" transform="matrix(1 0 0 1 263 1586)">Large</text>
 </g>
 <g id="Guides">
  <g id="H-reference" style="fill:#27AAE1;stroke:none;" transform="matrix(1 0 0 1 339 696)">
   <path d="M0.993654 0L3.63775 0L29.3281-67.1323L30.0303-67.1323L30.0303-70.459L28.1226-70.459ZM11.6885-24.4799L46.9815-24.4799L46.2315-26.7285L12.4385-26.7285ZM55.1196 0L57.7637 0L30.6382-70.459L29.4326-70.459L29.4326-67.1323Z"/>
  </g>
  <line id="Baseline-S" style="fill:none;stroke:#27AAE1;opacity:1;stroke-width:0.5;" x1="263" x2="3036" y1="696" y2="696"/>
  <line id="Capline-S" style="fill:none;stroke:#27AAE1;opacity:1;stroke-width:0.5;" x1="263" x2="3036" y1="625.541" y2="625.541"/>
  <g id="H-reference" style="fill:#27AAE1;stroke:none;" transform="matrix(1 0 0 1 339 1126)">
   <path d="M0.993654 0L3.63775 0L29.3281-67.1323L30.0303-67.1323L30.0303-70.459L28.1226-70.459ZM11.6885-24.4799L46.9815-24.4799L46.2315-26.7285L12.4385-26.7285ZM55.1196 0L57.7637 0L30.6382-70.459L29.4326-70.459L29.4326-67.1323Z"/>
  </g>
  <line id="Baseline-M" style="fill:none;stroke:#27AAE1;opacity:1;stroke-width:0.5;" x1="263" x2="3036" y1="1126" y2="1126"/>
  <line id="Capline-M" style="fill:none;stroke:#27AAE1;opacity:1;stroke-width:0.5;" x1="263" x2="3036" y1="1055.54" y2="1055.54"/>
  <g id="H-reference" style="fill:#27AAE1;stroke:none;" transform="matrix(1 0 0 1 339 1556)">
   <path d="M0.993654 0L3.63775 0L29.3281-67.1323L30.0303-67.1323L30.0303-70.459L28.1226-70.459ZM11.6885-24.4799L46.9815-24.4799L46.2315-26.7285L12.4385-26.7285ZM55.1196 0L57.7637 0L30.6382-70.459L29.4326-70.459L29.4326-67.1323Z"/>
  </g>
  <line id="Baseline-L" style="fill:none;stroke:#27AAE1;opacity:1;stroke-width:0.5;" x1="263" x2="3036" y1="1556" y2="1556"/>
  <line id="Capline-L" style="fill:none;stroke:#27AAE1;opacity:1;stroke-width:0.5;" x1="263" x2="3036" y1="1485.54" y2="1485.54"/>
  <line id="left-margin-Ultralight-S" style="fill:none;stroke:#00AEEF;stroke-width:0.5;opacity:1.0;" x1="512.411" x2="512.411" y1="600.785" y2="720.121"/>
  <line id="right-margin-Ultralight-S" style="fill:none;stroke:#00AEEF;stroke-width:0.5;opacity:1.0;" x1="607.011" x2="607.011" y1="600.785" y2="720.121"/>
  <line id="left-margin-Regular-S" style="fill:none;stroke:#00AEEF;stroke-width:0.5;opacity:1.0;" x1="1401.39" x2="1401.39" y1="600.785" y2="720.121"/>
  <line id="right-margin-Regular-S" style="fill:none;stroke:#00AEEF;stroke-width:0.5;opacity:1.0;" x1="1498.29" x2="1498.29" y1="600.785" y2="720.121"/>
  <line id="left-margin-Black-S" style="fill:none;stroke:#00AEEF;stroke-width:0.5;opacity:1.0;" x1="2878.15" x2="2878.15" y1="600.785" y2="720.121"/>
  <line id="right-margin-Black-S" style="fill:none;stroke:#00AEEF;stroke-width:0.5;opacity:1.0;" x1="2988.65" x2="2988.65" y1="600.785" y2="720.121"/>
 </g>
 <g id="Symbols">
  <g id="Black-S" transform="matrix(1 0 0 1 2878.15 696)">
   <path class="monochrome-0 SFSymbolsPreview000000" d="M90.25-25.8L90.25-8.3C90.25-3.8 86.65-0.2 82.15-0.2L64.75-0.2C60.25-0.2 56.65-3.8 56.65-8.3L56.65-25.8C56.65-30.3 60.25-33.9 64.75-33.9L82.25-33.9C86.65-33.9 90.25-30.3 90.25-25.8ZM53.95-25.8L53.95-8.3C53.95-3.8 50.35-0.2 45.85-0.2L28.35-0.2C23.85-0.2 20.25-3.8 20.25-8.3L20.25-25.8C20.25-30.3 23.85-33.9 28.35-33.9L45.85-33.9C50.35-33.9 53.95-30.3 53.95-25.8ZM72.15-62.2L72.15-44.7C72.15-40.2 68.55-36.6 64.05-36.6L46.55-36.6C42.05-36.6 38.45-40.2 38.45-44.7L38.45-62.2C38.45-66.7 42.05-70.3 46.55-70.3L64.05-70.3C68.55-70.3 72.15-66.6 72.15-62.2ZM42.85-14C42.85-15.6 42.15-17 39.85-17.9C41.25-18.5 41.75-19.6 41.75-20.7C41.75-23.3 39.55-24.5 37.05-24.5L33.35-24.5C32.25-24.5 31.35-23.7 31.35-22.5L31.35-11.3C31.35-10.2 32.15-9.3 33.35-9.3L37.25-9.3C40.95-9.5 42.85-11.4 42.85-14ZM62.25-47.1C62.25-47.4 62.15-47.7 62.05-47.9L56.75-60C56.45-60.7 55.95-61.1 55.35-61.1C54.75-61.1 54.25-60.8 53.95-60L48.65-47.9C48.55-47.7 48.45-47.4 48.45-47.1C48.45-46.4 49.05-45.8 49.85-45.8C50.55-45.8 51.05-46.2 51.25-46.7L52.35-49.3L58.45-49.3L59.55-46.7C59.75-46.1 60.25-45.8 60.95-45.8C61.65-45.8 62.25-46.4 62.25-47.1ZM70.85-17.1C70.85-19.5 72.65-21.4 74.85-21.4C76.05-21.4 76.65-20.8 76.85-20.8C77.05-20.7 77.55-20.3 78.15-20.3C78.95-20.3 79.75-20.9 79.75-21.9C79.75-22.8 79.15-23.4 78.15-24C77.35-24.4 76.25-24.8 74.75-24.8C71.05-24.8 67.15-21.7 67.15-17.1C67.15-12.6 70.95-9.4 74.85-9.4C76.25-9.4 77.35-9.7 78.15-10.2C79.15-10.8 79.75-11.4 79.75-12.3C79.75-13.3 78.95-13.9 78.15-13.9C77.45-13.9 77.05-13.6 76.85-13.4C76.65-13.3 76.05-12.8 74.95-12.8C72.65-12.8 70.85-14.7 70.85-17.1ZM37.25-16.2L34.85-16.2L34.85-12.5L37.25-12.5C38.95-12.5 39.35-13.5 39.35-14.3C39.45-15.2 38.95-16.2 37.25-16.2ZM55.25-56.4L57.35-51.5L53.25-51.5L55.25-56.4ZM38.35-20.4C38.35-21.3 37.85-21.7 37.05-21.7L34.95-21.7L34.95-19L37.05-19C37.75-18.9 38.35-19.6 38.35-20.4Z"/>
  </g>
  <g id="Regular-S" transform="matrix(1 0 0 1 1401.39 696)">
   <path class="monochrome-0 SFSymbolsPreview000000" d="M83.43-25.8L83.43-8.3C83.43-3.8 79.83-0.2 75.33-0.2L57.83-0.2C53.33-0.2 49.73-3.8 49.73-8.3L49.73-25.8C49.73-30.3 53.33-33.9 57.83-33.9L75.33-33.9C79.83-33.9 83.43-30.3 83.43-25.8ZM47.13-25.8L47.13-8.3C47.13-3.8 43.53-0.2 39.03-0.2L21.53-0.2C17.03-0.2 13.43-3.8 13.43-8.3L13.43-25.8C13.43-30.3 17.03-33.9 21.53-33.9L39.03-33.9C43.53-33.9 47.13-30.3 47.13-25.8ZM65.23-62.2L65.23-44.7C65.23-40.2 61.63-36.6 57.13-36.6L39.73-36.6C35.23-36.6 31.63-40.2 31.63-44.7L31.63-62.2C31.63-66.7 35.23-70.3 39.73-70.3L57.23-70.3C61.63-70.3 65.23-66.6 65.23-62.2ZM36.03-14C36.03-15.6 35.33-17 33.03-17.9C34.43-18.5 34.93-19.6 34.93-20.7C34.93-23.3 32.73-24.5 30.23-24.5L26.53-24.5C25.43-24.5 24.53-23.7 24.53-22.5L24.53-11.3C24.53-10.2 25.33-9.3 26.53-9.3L30.43-9.3C34.13-9.5 36.03-11.4 36.03-14ZM55.33-47.1C55.33-47.4 55.23-47.7 55.13-47.9L49.83-60C49.53-60.7 49.03-61.1 48.43-61.1C47.83-61.1 47.33-60.7 47.03-60L41.73-47.9C41.63-47.7 41.53-47.4 41.53-47.1C41.53-46.4 42.13-45.8 42.93-45.8C43.63-45.8 44.13-46.2 44.33-46.7L45.43-49.3L51.53-49.3L52.63-46.7C52.83-46.1 53.33-45.8 54.03-45.8C54.73-45.8 55.33-46.4 55.33-47.1ZM64.03-17.1C64.03-19.5 65.83-21.4 68.03-21.4C69.23-21.4 69.83-20.8 70.03-20.8C70.23-20.7 70.73-20.3 71.33-20.3C72.13-20.3 72.93-20.9 72.93-21.9C72.93-22.8 72.33-23.4 71.33-24C70.53-24.4 69.43-24.8 67.93-24.8C64.23-24.8 60.33-21.7 60.33-17.1C60.33-12.6 64.13-9.4 68.03-9.4C69.43-9.4 70.53-9.7 71.33-10.2C72.33-10.8 72.93-11.4 72.93-12.3C72.93-13.3 72.13-13.9 71.33-13.9C70.63-13.9 70.23-13.6 70.03-13.4C69.83-13.3 69.23-12.8 68.13-12.8C65.73-12.8 64.03-14.7 64.03-17.1ZM30.43-16.2L28.03-16.2L28.03-12.5L30.43-12.5C32.13-12.5 32.53-13.5 32.53-14.3C32.53-15.2 32.13-16.2 30.43-16.2ZM48.43-56.4L50.53-51.5L46.43-51.5L48.43-56.4ZM31.43-20.4C31.43-21.3 30.93-21.7 30.13-21.7L28.03-21.7L28.03-19L30.13-19C30.93-18.9 31.43-19.6 31.43-20.4Z"/>
  </g>
  <g id="Ultralight-S" transform="matrix(1 0 0 1 512.411 696)">
   <path class="monochrome-0 SFSymbolsPreview000000" d="M82.333-25.8L82.333-8.3C82.333-3.8 78.733-0.2 74.233-0.2L56.733-0.2C52.233-0.2 48.633-3.8 48.633-8.3L48.633-25.8C48.633-30.3 52.233-33.9 56.733-33.9L74.233-33.9C78.733-33.9 82.333-30.3 82.333-25.8ZM45.933-25.8L45.933-8.3C45.933-3.8 42.333-0.2 37.833-0.2L20.433-0.2C15.933-0.2 12.333-3.8 12.333-8.3L12.333-25.8C12.333-30.3 15.933-33.9 20.433-33.9L37.933-33.9C42.333-33.9 45.933-30.3 45.933-25.8ZM64.133-62.2L64.133-44.7C64.133-40.2 60.533-36.6 56.033-36.6L38.533-36.6C34.033-36.6 30.433-40.2 30.433-44.7L30.433-62.2C30.433-66.7 34.033-70.3 38.533-70.3L56.033-70.3C60.533-70.3 64.133-66.6 64.133-62.2ZM34.833-14C34.833-15.6 34.133-17 31.833-17.9C33.233-18.5 33.733-19.6 33.733-20.7C33.733-23.3 31.533-24.5 29.033-24.5L25.333-24.5C24.233-24.5 23.333-23.7 23.333-22.5L23.333-11.3C23.333-10.2 24.133-9.3 25.333-9.3L29.233-9.3C32.933-9.5 34.833-11.4 34.833-14ZM54.233-47.1C54.233-47.4 54.133-47.7 54.033-47.9L48.733-60C48.433-60.7 47.933-61.1 47.333-61.1C46.733-61.1 46.233-60.8 45.933-60L40.633-47.9C40.533-47.7 40.433-47.4 40.433-47.1C40.433-46.4 41.033-45.8 41.833-45.8C42.533-45.8 43.033-46.2 43.233-46.7L44.333-49.3L50.433-49.3L51.533-46.7C51.733-46.1 52.233-45.8 52.933-45.8C53.633-45.8 54.233-46.4 54.233-47.1ZM62.933-17.1C62.933-19.5 64.733-21.4 66.933-21.4C68.133-21.4 68.733-20.8 68.933-20.8C69.133-20.7 69.633-20.3 70.233-20.3C71.033-20.3 71.833-20.9 71.833-21.9C71.833-22.8 71.233-23.4 70.233-24C69.433-24.4 68.333-24.8 66.833-24.8C63.133-24.8 59.233-21.7 59.233-17.1C59.233-12.6 63.033-9.4 66.933-9.4C68.333-9.4 69.433-9.7 70.233-10.2C71.233-10.8 71.833-11.4 71.833-12.3C71.833-13.3 71.033-13.9 70.233-13.9C69.533-13.9 69.133-13.6 68.933-13.4C68.733-13.3 68.133-12.8 67.033-12.8C64.633-12.8 62.933-14.7 62.933-17.1ZM29.333-16.2L26.933-16.2L26.933-12.5L29.333-12.5C31.033-12.5 31.433-13.5 31.433-14.3C31.433-15.2 31.033-16.2 29.333-16.2ZM47.333-56.4L49.433-51.5L45.333-51.5L47.333-56.4ZM30.333-20.4C30.333-21.3 29.833-21.7 29.033-21.7L26.933-21.7L26.933-19L29.033-19C29.833-18.9 30.333-19.6 30.333-20.4Z"/>
  </g>
 </g>
</svg>
