<?xml version="1.0" encoding="UTF-8"?>
<!--Generator: Apple Native CoreSVG 175.5-->
<!DOCTYPE svg
PUBLIC "-//W3C//DTD SVG 1.1//EN"
       "http://www.w3.org/Graphics/SVG/1.1/DTD/svg11.dtd">
<svg version="1.1" xmlns="http://www.w3.org/2000/svg" xmlns:xlink="http://www.w3.org/1999/xlink" width="3300" height="2200">
 <!--glyph: "", point size: 100.0, font version: "18.0d12e2", template writer version: "101"-->
 <style>.monochrome-0 {fill:#000000}

.SFSymbolsPreview000000 {fill:#000000;opacity:1.0}
</style>
 <g id="Notes">
  <rect height="2200" id="artboard" style="fill:white;opacity:1" width="3300" x="0" y="0"/>
  <line style="fill:none;stroke:black;opacity:1;stroke-width:0.5;" x1="263" x2="3036" y1="292" y2="292"/>
  <text style="stroke:none;fill:black;font-family:sans-serif;font-size:13;font-weight:bold;" transform="matrix(1 0 0 1 263 322)">Weight/Scale Variations</text>
  <text style="stroke:none;fill:black;font-family:sans-serif;font-size:13;text-anchor:middle;" transform="matrix(1 0 0 1 559.711 322)">Ultralight</text>
  <text style="stroke:none;fill:black;font-family:sans-serif;font-size:13;text-anchor:middle;" transform="matrix(1 0 0 1 856.422 322)">Thin</text>
  <text style="stroke:none;fill:black;font-family:sans-serif;font-size:13;text-anchor:middle;" transform="matrix(1 0 0 1 1153.13 322)">Light</text>
  <text style="stroke:none;fill:black;font-family:sans-serif;font-size:13;text-anchor:middle;" transform="matrix(1 0 0 1 1449.84 322)">Regular</text>
  <text style="stroke:none;fill:black;font-family:sans-serif;font-size:13;text-anchor:middle;" transform="matrix(1 0 0 1 1746.56 322)">Medium</text>
  <text style="stroke:none;fill:black;font-family:sans-serif;font-size:13;text-anchor:middle;" transform="matrix(1 0 0 1 2043.27 322)">Semibold</text>
  <text style="stroke:none;fill:black;font-family:sans-serif;font-size:13;text-anchor:middle;" transform="matrix(1 0 0 1 2339.98 322)">Bold</text>
  <text style="stroke:none;fill:black;font-family:sans-serif;font-size:13;text-anchor:middle;" transform="matrix(1 0 0 1 2636.69 322)">Heavy</text>
  <text style="stroke:none;fill:black;font-family:sans-serif;font-size:13;text-anchor:middle;" transform="matrix(1 0 0 1 2933.4 322)">Black</text>
  <line style="fill:none;stroke:black;opacity:1;stroke-width:0.5;" x1="263" x2="3036" y1="1903" y2="1903"/>
  <g transform="matrix(1 0 0 1 263 1933)">
   <path d="M9.24805 0.830078C13.5547 0.830078 17.1387-2.74414 17.1387-7.05078C17.1387-11.3574 13.5449-14.9316 9.23828-14.9316C4.94141-14.9316 1.36719-11.3574 1.36719-7.05078C1.36719-2.74414 4.95117 0.830078 9.24805 0.830078ZM9.24805-0.654297C5.70312-0.654297 2.87109-3.49609 2.87109-7.05078C2.87109-10.6055 5.69336-13.4473 9.23828-13.4473C12.793-13.4473 15.6445-10.6055 15.6445-7.05078C15.6445-3.49609 12.8027-0.654297 9.24805-0.654297ZM5.6543-7.05078C5.6543-6.62109 5.95703-6.32812 6.40625-6.32812L8.50586-6.32812L8.50586-4.20898C8.50586-3.76953 8.79883-3.4668 9.22852-3.4668C9.67773-3.4668 9.9707-3.76953 9.9707-4.20898L9.9707-6.32812L12.0898-6.32812C12.5293-6.32812 12.832-6.62109 12.832-7.05078C12.832-7.49023 12.5293-7.79297 12.0898-7.79297L9.9707-7.79297L9.9707-9.90234C9.9707-10.3516 9.67773-10.6543 9.22852-10.6543C8.79883-10.6543 8.50586-10.3516 8.50586-9.90234L8.50586-7.79297L6.40625-7.79297C5.95703-7.79297 5.6543-7.49023 5.6543-7.05078Z"/>
  </g>
  <g transform="matrix(1 0 0 1 281.867 1933)">
   <path d="M11.709 2.91016C17.1582 2.91016 21.6699-1.61133 21.6699-7.05078C21.6699-12.5 17.1484-17.0117 11.6992-17.0117C6.25977-17.0117 1.74805-12.5 1.74805-7.05078C1.74805-1.61133 6.26953 2.91016 11.709 2.91016ZM11.709 1.25C7.09961 1.25 3.41797-2.44141 3.41797-7.05078C3.41797-11.6602 7.08984-15.3516 11.6992-15.3516C16.3086-15.3516 20.0098-11.6602 20.0098-7.05078C20.0098-2.44141 16.3184 1.25 11.709 1.25ZM7.17773-7.05078C7.17773-6.57227 7.50977-6.25 8.00781-6.25L10.8789-6.25L10.8789-3.36914C10.8789-2.88086 11.2109-2.53906 11.6895-2.53906C12.1777-2.53906 12.5195-2.87109 12.5195-3.36914L12.5195-6.25L15.4004-6.25C15.8887-6.25 16.2305-6.57227 16.2305-7.05078C16.2305-7.53906 15.8887-7.88086 15.4004-7.88086L12.5195-7.88086L12.5195-10.752C12.5195-11.25 12.1777-11.5918 11.6895-11.5918C11.2109-11.5918 10.8789-11.25 10.8789-10.752L10.8789-7.88086L8.00781-7.88086C7.50977-7.88086 7.17773-7.53906 7.17773-7.05078Z"/>
  </g>
  <g transform="matrix(1 0 0 1 305.646 1933)">
   <path d="M14.9707 5.66406C21.9336 5.66406 27.6953-0.0976562 27.6953-7.05078C27.6953-14.0137 21.9238-19.7754 14.9609-19.7754C8.00781-19.7754 2.25586-14.0137 2.25586-7.05078C2.25586-0.0976562 8.01758 5.66406 14.9707 5.66406ZM14.9707 3.84766C8.93555 3.84766 4.08203-1.01562 4.08203-7.05078C4.08203-13.0957 8.92578-17.9492 14.9609-17.9492C21.0059-17.9492 25.8691-13.0957 25.8691-7.05078C25.8691-1.01562 21.0156 3.84766 14.9707 3.84766ZM9.19922-7.05078C9.19922-6.5332 9.57031-6.17188 10.1172-6.17188L14.0625-6.17188L14.0625-2.2168C14.0625-1.67969 14.4336-1.29883 14.9512-1.29883C15.4883-1.29883 15.8594-1.66992 15.8594-2.2168L15.8594-6.17188L19.8145-6.17188C20.3516-6.17188 20.7324-6.5332 20.7324-7.05078C20.7324-7.59766 20.3613-7.96875 19.8145-7.96875L15.8594-7.96875L15.8594-11.9141C15.8594-12.4609 15.4883-12.8418 14.9512-12.8418C14.4336-12.8418 14.0625-12.4609 14.0625-11.9141L14.0625-7.96875L10.1172-7.96875C9.57031-7.96875 9.19922-7.59766 9.19922-7.05078Z"/>
  </g>
  <text style="stroke:none;fill:black;font-family:sans-serif;font-size:13;font-weight:bold;" transform="matrix(1 0 0 1 263 1953)">Design Variations</text>
  <text style="stroke:none;fill:black;font-family:sans-serif;font-size:13;" transform="matrix(1 0 0 1 263 1971)">Symbols are supported in up to nine weights and three scales.</text>
  <text style="stroke:none;fill:black;font-family:sans-serif;font-size:13;" transform="matrix(1 0 0 1 263 1989)">For optimal layout with text and other symbols, vertically align</text>
  <text style="stroke:none;fill:black;font-family:sans-serif;font-size:13;" transform="matrix(1 0 0 1 263 2007)">symbols with the adjacent text.</text>
  <line style="fill:none;stroke:#00AEEF;stroke-width:0.5;opacity:1.0;" x1="776" x2="776" y1="1919" y2="1933"/>
  <g transform="matrix(1 0 0 1 776 1933)">
   <path d="M3.31055 0.15625C3.82812 0.15625 4.08203-0.0390625 4.26758-0.585938L5.52734-4.0332L11.2891-4.0332L12.5488-0.585938C12.7344-0.0390625 12.9883 0.15625 13.4961 0.15625C14.0137 0.15625 14.3457-0.15625 14.3457-0.644531C14.3457-0.810547 14.3164-0.966797 14.2383-1.17188L9.6582-13.3691C9.43359-13.9648 9.0332-14.2676 8.4082-14.2676C7.80273-14.2676 7.39258-13.9746 7.17773-13.3789L2.59766-1.16211C2.51953-0.957031 2.49023-0.800781 2.49023-0.634766C2.49023-0.146484 2.80273 0.15625 3.31055 0.15625ZM6.00586-5.51758L8.37891-12.0898L8.42773-12.0898L10.8008-5.51758Z"/>
  </g>
  <line style="fill:none;stroke:#00AEEF;stroke-width:0.5;opacity:1.0;" x1="793.197" x2="793.197" y1="1919" y2="1933"/>
  <text style="stroke:none;fill:black;font-family:sans-serif;font-size:13;font-weight:bold;" transform="matrix(1 0 0 1 776 1953)">Margins</text>
  <text style="stroke:none;fill:black;font-family:sans-serif;font-size:13;" transform="matrix(1 0 0 1 776 1971)">Leading and trailing margins on the left and right side of each symbol</text>
  <text style="stroke:none;fill:black;font-family:sans-serif;font-size:13;" transform="matrix(1 0 0 1 776 1989)">can be adjusted by modifying the x-location of the margin guidelines.</text>
  <text style="stroke:none;fill:black;font-family:sans-serif;font-size:13;" transform="matrix(1 0 0 1 776 2007)">Modifications are automatically applied proportionally to all</text>
  <text style="stroke:none;fill:black;font-family:sans-serif;font-size:13;" transform="matrix(1 0 0 1 776 2025)">scales and weights.</text>
  <g transform="matrix(1 0 0 1 1289 1933)">
   <path d="M2.8418 1.86523L4.54102 3.57422C5.40039 4.44336 6.38672 4.38477 7.31445 3.35938L18.0078-8.42773L17.041-9.4043L6.42578 2.27539C6.07422 2.67578 5.74219 2.77344 5.27344 2.30469L4.10156 1.14258C3.63281 0.683594 3.74023 0.341797 4.14062-0.0195312L15.6152-10.8203L14.6387-11.7871L3.04688-0.898438C2.06055 0.0195312 1.98242 0.996094 2.8418 1.86523ZM9.25781-16.3281C8.83789-15.918 8.80859-15.3418 9.04297-14.9512C9.27734-14.5898 9.73633-14.3555 10.3809-14.5215C11.8457-14.8633 13.3691-14.9219 14.7949-13.9844L14.209-12.5293C13.8672-11.6992 14.043-11.1133 14.5801-10.5664L16.875-8.25195C17.3633-7.76367 17.7734-7.74414 18.3398-7.8418L19.4043-8.03711L20.0684-7.36328L20.0293-6.80664C19.9902-6.30859 20.1172-5.92773 20.6055-5.44922L21.3672-4.70703C21.8457-4.22852 22.4609-4.19922 22.9297-4.66797L25.8398-7.58789C26.3086-8.05664 26.2891-8.65234 25.8105-9.13086L25.0391-9.89258C24.5605-10.3711 24.1895-10.5273 23.7109-10.4883L23.1348-10.4395L22.4902-11.0742L22.7344-12.1973C22.8613-12.7637 22.7051-13.2031 22.1191-13.7891L19.9219-15.9766C16.582-19.2969 12.1484-19.2188 9.25781-16.3281ZM10.752-15.957C13.1836-17.7344 16.4746-17.4316 18.7012-15.2051L21.1328-12.793C21.3672-12.5586 21.4062-12.373 21.3379-12.0312L21.0156-10.5469L22.5195-9.0625L23.5059-9.12109C23.7598-9.13086 23.8379-9.11133 24.0332-8.91602L24.6094-8.33984L22.168-5.89844L21.5918-6.47461C21.3965-6.66992 21.3672-6.74805 21.377-7.01172L21.4453-7.98828L19.9512-9.47266L18.4277-9.21875C18.1055-9.15039 17.959-9.17969 17.7148-9.41406L15.7129-11.416C15.459-11.6504 15.4297-11.8164 15.5859-12.1875L16.4648-14.2773C14.9023-15.7324 12.8711-16.3574 10.8398-15.7617C10.6836-15.7227 10.625-15.8496 10.752-15.957Z"/>
  </g>
  <text style="stroke:none;fill:black;font-family:sans-serif;font-size:13;font-weight:bold;" transform="matrix(1 0 0 1 1289 1953)">Exporting</text>
  <text style="stroke:none;fill:black;font-family:sans-serif;font-size:13;" transform="matrix(1 0 0 1 1289 1971)">Symbols should be outlined when exporting to ensure the</text>
  <text style="stroke:none;fill:black;font-family:sans-serif;font-size:13;" transform="matrix(1 0 0 1 1289 1989)">design is preserved when submitting to Xcode.</text>
  <text id="template-version" style="stroke:none;fill:black;font-family:sans-serif;font-size:13;text-anchor:end;" transform="matrix(1 0 0 1 3036 1933)">Template v.4.0</text>
  <text style="stroke:none;fill:black;font-family:sans-serif;font-size:13;text-anchor:end;" transform="matrix(1 0 0 1 3036 1951)">Requires Xcode 14 or greater</text>
  <text id="descriptive-name" style="stroke:none;fill:black;font-family:sans-serif;font-size:13;text-anchor:end;" transform="matrix(1 0 0 1 3036 1969)">Generated from routines</text>
  <text style="stroke:none;fill:black;font-family:sans-serif;font-size:13;text-anchor:end;" transform="matrix(1 0 0 1 3036 1987)">Typeset at 100 points</text>
  <text style="stroke:none;fill:black;font-family:sans-serif;font-size:13;" transform="matrix(1 0 0 1 263 726)">Small</text>
  <text style="stroke:none;fill:black;font-family:sans-serif;font-size:13;" transform="matrix(1 0 0 1 263 1156)">Medium</text>
  <text style="stroke:none;fill:black;font-family:sans-serif;font-size:13;" transform="matrix(1 0 0 1 263 1586)">Large</text>
 </g>
 <g id="Guides">
  <g id="H-reference" style="fill:#27AAE1;stroke:none;" transform="matrix(1 0 0 1 339 696)">
   <path d="M0.993654 0L3.63775 0L29.3281-67.1323L30.0303-67.1323L30.0303-70.459L28.1226-70.459ZM11.6885-24.4799L46.9815-24.4799L46.2315-26.7285L12.4385-26.7285ZM55.1196 0L57.7637 0L30.6382-70.459L29.4326-70.459L29.4326-67.1323Z"/>
  </g>
  <line id="Baseline-S" style="fill:none;stroke:#27AAE1;opacity:1;stroke-width:0.5;" x1="263" x2="3036" y1="696" y2="696"/>
  <line id="Capline-S" style="fill:none;stroke:#27AAE1;opacity:1;stroke-width:0.5;" x1="263" x2="3036" y1="625.541" y2="625.541"/>
  <g id="H-reference" style="fill:#27AAE1;stroke:none;" transform="matrix(1 0 0 1 339 1126)">
   <path d="M0.993654 0L3.63775 0L29.3281-67.1323L30.0303-67.1323L30.0303-70.459L28.1226-70.459ZM11.6885-24.4799L46.9815-24.4799L46.2315-26.7285L12.4385-26.7285ZM55.1196 0L57.7637 0L30.6382-70.459L29.4326-70.459L29.4326-67.1323Z"/>
  </g>
  <line id="Baseline-M" style="fill:none;stroke:#27AAE1;opacity:1;stroke-width:0.5;" x1="263" x2="3036" y1="1126" y2="1126"/>
  <line id="Capline-M" style="fill:none;stroke:#27AAE1;opacity:1;stroke-width:0.5;" x1="263" x2="3036" y1="1055.54" y2="1055.54"/>
  <g id="H-reference" style="fill:#27AAE1;stroke:none;" transform="matrix(1 0 0 1 339 1556)">
   <path d="M0.993654 0L3.63775 0L29.3281-67.1323L30.0303-67.1323L30.0303-70.459L28.1226-70.459ZM11.6885-24.4799L46.9815-24.4799L46.2315-26.7285L12.4385-26.7285ZM55.1196 0L57.7637 0L30.6382-70.459L29.4326-70.459L29.4326-67.1323Z"/>
  </g>
  <line id="Baseline-L" style="fill:none;stroke:#27AAE1;opacity:1;stroke-width:0.5;" x1="263" x2="3036" y1="1556" y2="1556"/>
  <line id="Capline-L" style="fill:none;stroke:#27AAE1;opacity:1;stroke-width:0.5;" x1="263" x2="3036" y1="1485.54" y2="1485.54"/>
  <line id="left-margin-Ultralight-S" style="fill:none;stroke:#00AEEF;stroke-width:0.5;opacity:1.0;" x1="512.411" x2="512.411" y1="600.785" y2="720.121"/>
  <line id="right-margin-Ultralight-S" style="fill:none;stroke:#00AEEF;stroke-width:0.5;opacity:1.0;" x1="607.011" x2="607.011" y1="600.785" y2="720.121"/>
  <line id="left-margin-Regular-S" style="fill:none;stroke:#00AEEF;stroke-width:0.5;opacity:1.0;" x1="1401.39" x2="1401.39" y1="600.785" y2="720.121"/>
  <line id="right-margin-Regular-S" style="fill:none;stroke:#00AEEF;stroke-width:0.5;opacity:1.0;" x1="1498.29" x2="1498.29" y1="600.785" y2="720.121"/>
  <line id="left-margin-Black-S" style="fill:none;stroke:#00AEEF;stroke-width:0.5;opacity:1.0;" x1="2878.15" x2="2878.15" y1="600.785" y2="720.121"/>
  <line id="right-margin-Black-S" style="fill:none;stroke:#00AEEF;stroke-width:0.5;opacity:1.0;" x1="2988.65" x2="2988.65" y1="600.785" y2="720.121"/>
 </g>
 <g id="Symbols">
  <g id="Black-S" transform="matrix(1 0 0 1 2878.15 696)">
   <path class="monochrome-0 SFSymbolsPreview000000" d="M55.25-59.8C41.75-59.8 30.75-48.8 30.75-35.3C30.75-21.8 41.75-10.8 55.25-10.8C68.75-10.8 79.75-21.8 79.75-35.3C79.75-48.8 68.85-59.8 55.25-59.8ZM72.75-35.3C72.75-33.5 72.45-31.8 71.95-30.2C70.35-29.7 68.65-29.5 66.85-29.5C57.25-29.5 49.35-37.4 49.35-47C49.35-48.7 49.65-50.4 50.05-52.1C51.65-52.6 53.35-52.9 55.15-52.9C64.95-52.8 72.75-44.9 72.75-35.3ZM37.75-35.3C37.75-39.9 39.55-44.1 42.45-47.2C42.45-47.1 42.45-47.1 42.45-47C42.45-33.5 53.45-22.5 66.95-22.5C67.05-22.5 67.05-22.5 67.15-22.5C64.05-19.6 59.85-17.8 55.25-17.8C45.65-17.8 37.75-25.6 37.75-35.3ZM75.05-10.5L74.05-11.5C72.65-12.9 72.65-15.1 74.05-16.4L74.05-16.4C75.45-17.8 77.65-17.8 78.95-16.4L79.95-15.4C81.35-14 81.35-11.8 79.95-10.5L79.95-10.5C78.65-9.1 76.45-9.1 75.05-10.5ZM74.15-59L75.15-60C76.55-61.4 78.75-61.4 80.05-60L80.05-60C81.45-58.6 81.45-56.4 80.05-55.1L79.05-54.1C77.65-52.7 75.45-52.7 74.15-54.1L74.15-54.1C72.75-55.4 72.75-57.6 74.15-59ZM31.55-54.1L30.55-55.1C29.15-56.5 29.15-58.7 30.55-60L30.55-60C31.95-61.4 34.15-61.4 35.45-60L36.45-59C37.85-57.6 37.85-55.4 36.45-54.1L36.45-54.1C35.15-52.7 32.95-52.7 31.55-54.1ZM30.55-15.5L31.55-16.5C32.95-17.9 35.15-17.9 36.45-16.5L36.45-16.5C37.85-15.1 37.85-12.9 36.45-11.6L35.45-10.6C34.05-9.2 31.85-9.2 30.55-10.6L30.55-10.6C29.15-11.9 29.15-14.1 30.55-15.5ZM51.75-3.8L51.75-5.2C51.75-7.1 53.35-8.7 55.25-8.7L55.25-8.7C57.15-8.7 58.75-7.1 58.75-5.2L58.75-3.8C58.75-1.9 57.15-0.3 55.25-0.3L55.25-0.3C53.35-0.3 51.75-1.8 51.75-3.8ZM51.75-65.4L51.75-66.8C51.75-68.7 53.35-70.3 55.25-70.3L55.25-70.3C57.15-70.3 58.75-68.7 58.75-66.8L58.75-65.4C58.75-63.5 57.15-61.9 55.25-61.9L55.25-61.9C53.35-61.9 51.75-63.4 51.75-65.4ZM86.75-31.8L85.35-31.8C83.45-31.8 81.85-33.4 81.85-35.3L81.85-35.3C81.85-37.2 83.45-38.8 85.35-38.8L86.75-38.8C88.65-38.8 90.25-37.2 90.25-35.3L90.25-35.3C90.25-33.3 88.75-31.8 86.75-31.8ZM25.15-31.8L23.75-31.8C21.85-31.8 20.25-33.4 20.25-35.3L20.25-35.3C20.25-37.2 21.85-38.8 23.75-38.8L25.15-38.8C27.05-38.8 28.65-37.2 28.65-35.3L28.65-35.3C28.65-33.3 27.15-31.8 25.15-31.8Z"/>
  </g>
  <g id="Regular-S" transform="matrix(1 0 0 1 1401.39 696)">
   <path class="monochrome-0 SFSymbolsPreview000000" d="M48.43-58.6C35.53-58.6 25.13-48.1 25.13-35.3C25.13-22.5 35.63-12 48.43-12C61.23-12 71.73-22.5 71.73-35.3C71.73-48.1 61.33-58.6 48.43-58.6ZM67.13-35.3C67.13-33.2 66.73-31.2 66.13-29.3C64.23-28.6 62.23-28.3 60.13-28.3C49.83-28.3 41.43-36.7 41.43-47C41.43-49.1 41.73-51.1 42.43-53C44.33-53.6 46.33-54 48.43-54C58.73-53.9 67.13-45.5 67.13-35.3ZM48.43-16.6C38.13-16.6 29.73-25 29.73-35.3C29.73-41.3 32.53-46.6 36.93-50C36.83-49 36.73-48 36.73-47C36.73-34.1 47.23-23.7 60.03-23.7C61.03-23.7 62.03-23.8 63.03-23.9C59.73-19.4 54.43-16.6 48.43-16.6ZM69.93-10.5L67.33-13.1C66.43-14 66.43-15.5 67.33-16.4L67.33-16.4C68.23-17.3 69.73-17.3 70.63-16.4L73.23-13.8C74.13-12.9 74.13-11.4 73.23-10.5L73.23-10.5C72.33-9.6 70.83-9.6 69.93-10.5ZM67.23-57.4L69.83-60C70.73-60.9 72.23-60.9 73.13-60L73.13-60C74.03-59.1 74.03-57.6 73.13-56.7L70.53-54.1C69.63-53.2 68.13-53.2 67.23-54.1L67.23-54.1C66.33-55 66.33-56.5 67.23-57.4ZM26.33-54.1L23.73-56.7C22.83-57.6 22.83-59.1 23.73-60L23.73-60C24.63-60.9 26.13-60.9 27.03-60L29.63-57.4C30.53-56.5 30.53-55 29.63-54.1L29.63-54.1C28.73-53.2 27.23-53.2 26.33-54.1ZM23.73-13.8L26.33-16.4C27.23-17.3 28.73-17.3 29.63-16.4L29.63-16.4C30.53-15.5 30.53-14 29.63-13.1L27.03-10.5C26.13-9.6 24.63-9.6 23.73-10.5L23.73-10.5C22.83-11.4 22.83-12.9 23.73-13.8ZM46.13-2.6L46.13-6.3C46.13-7.6 47.13-8.6 48.43-8.6L48.43-8.6C49.73-8.6 50.73-7.6 50.73-6.3L50.73-2.6C50.73-1.3 49.73-0.3 48.43-0.3L48.43-0.3C47.13-0.3 46.13-1.3 46.13-2.6ZM46.13-64.2L46.13-67.9C46.13-69.2 47.13-70.2 48.43-70.2L48.43-70.2C49.73-70.2 50.73-69.2 50.73-67.9L50.73-64.2C50.73-62.9 49.73-61.9 48.43-61.9L48.43-61.9C47.13-61.9 46.13-62.9 46.13-64.2ZM81.13-32.9L77.43-32.9C76.13-32.9 75.13-33.9 75.13-35.2L75.13-35.2C75.13-36.5 76.13-37.5 77.43-37.5L81.13-37.5C82.43-37.5 83.43-36.5 83.43-35.2L83.43-35.2C83.43-34 82.43-32.9 81.13-32.9ZM19.53-32.9L15.83-32.9C14.53-32.9 13.53-33.9 13.53-35.2L13.53-35.2C13.53-36.5 14.53-37.5 15.83-37.5L19.53-37.5C20.83-37.5 21.83-36.5 21.83-35.2L21.83-35.2C21.83-34 20.83-32.9 19.53-32.9Z"/>
  </g>
  <g id="Ultralight-S" transform="matrix(1 0 0 1 512.411 696)">
   <path class="monochrome-0 SFSymbolsPreview000000" d="M47.333-57.4C35.133-57.4 25.133-47.5 25.133-35.2C25.133-22.9 35.033-13 47.333-13C59.633-13 69.433-23 69.433-35.3C69.433-47.6 59.533-57.4 47.333-57.4ZM67.133-35.3C67.133-32.9 66.733-30.5 65.933-28.4C63.733-27.6 61.433-27.2 59.033-27.2C48.033-27.1 39.133-36 39.133-46.9C39.133-49.3 39.533-51.6 40.333-53.8C42.533-54.6 44.833-55 47.233-55C58.233-55.1 67.133-46.2 67.133-35.3ZM47.333-15.4C36.433-15.4 27.533-24.3 27.533-35.2C27.533-42.6 31.633-49 37.533-52.4C37.033-50.6 36.833-48.7 36.833-46.8C36.833-34.6 46.733-24.6 59.033-24.6C60.933-24.6 62.833-24.8 64.633-25.3C61.133-19.5 54.733-15.4 47.333-15.4ZM70.433-10.5L66.133-14.8C65.633-15.3 65.633-16 66.133-16.4L66.133-16.4C66.633-16.9 67.333-16.9 67.733-16.4L72.033-12.1C72.533-11.6 72.533-10.9 72.033-10.5L72.033-10.5C71.633-10 70.833-10 70.433-10.5ZM66.133-55.7L70.433-60C70.933-60.5 71.633-60.5 72.033-60L72.033-60C72.533-59.5 72.533-58.8 72.033-58.4L67.733-54.1C67.233-53.6 66.533-53.6 66.133-54.1L66.133-54.1C65.633-54.5 65.633-55.3 66.133-55.7ZM26.833-54.1L22.533-58.4C22.033-58.9 22.033-59.6 22.533-60L22.533-60C23.033-60.5 23.733-60.5 24.133-60L28.433-55.7C28.933-55.2 28.933-54.5 28.433-54.1L28.433-54.1C28.033-53.6 27.333-53.6 26.833-54.1ZM22.533-12.2L26.833-16.5C27.333-17 28.033-17 28.433-16.5L28.433-16.5C28.933-16 28.933-15.3 28.433-14.9L24.133-10.6C23.633-10.1 22.933-10.1 22.533-10.6L22.533-10.6C22.133-11 22.133-11.7 22.533-12.2ZM46.133-1.4L46.133-7.5C46.133-8.1 46.633-8.7 47.333-8.7L47.333-8.7C47.933-8.7 48.533-8.2 48.533-7.5L48.533-1.4C48.533-0.8 48.033-0.2 47.333-0.2L47.333-0.2C46.633-0.3 46.133-0.8 46.133-1.4ZM46.133-63L46.133-69.1C46.133-69.7 46.633-70.3 47.333-70.3L47.333-70.3C47.933-70.3 48.533-69.8 48.533-69.1L48.533-63C48.533-62.4 48.033-61.8 47.333-61.8L47.333-61.8C46.633-61.9 46.133-62.4 46.133-63ZM81.133-34.1L75.033-34.1C74.433-34.1 73.833-34.6 73.833-35.3L73.833-35.3C73.833-35.9 74.333-36.5 75.033-36.5L81.133-36.5C81.733-36.5 82.333-36 82.333-35.3L82.333-35.3C82.333-34.6 81.833-34.1 81.133-34.1ZM19.533-34.1L13.433-34.1C12.833-34.1 12.233-34.6 12.233-35.3L12.233-35.3C12.233-35.9 12.733-36.5 13.433-36.5L19.533-36.5C20.133-36.5 20.733-36 20.733-35.3L20.733-35.3C20.733-34.6 20.233-34.1 19.533-34.1Z"/>
  </g>
 </g>
</svg>
